<svg width="645" height="681" viewBox="0 0 645 681" fill="none" xmlns="http://www.w3.org/2000/svg">
<path d="M630.474 -22.975C635.385 -26.8351 639.987 -31.0564 644.868 -34.9453L591.076 -56.014C585.511 -52.942 581.597 -47.0783 575.03 -45.8918C569.044 -44.461 563.237 -42.4446 557.347 -40.6844C565.273 -47.2248 573.497 -53.4259 581.667 -59.6992L-141.646 -343L-514 607.68L-329.226 680.051C-324.323 679.139 -319.138 679.283 -314.457 677.58C-308.879 673.793 -305.289 667.974 -300.654 663.251C-296.81 658.858 -292.015 655.203 -286.496 652.458C-290.172 653.112 -293.871 653.722 -297.596 654.083C-293.004 650.252 -285.205 650.835 -282.698 644.747C-283.408 644.469 -284.154 644.074 -284.888 643.752C-286.084 645.884 -287.783 647.733 -289.885 649.191C-290.926 646.621 -291.69 643.971 -292.637 641.369C-287.513 637.633 -281.774 634.562 -275.564 632.233L-278.517 636.688C-276.841 637.636 -275.165 638.584 -273.489 639.533L-275.828 642.787C-263.292 639.304 -252.354 632.961 -244.034 624.348L-245.041 620.384C-244.014 617.656 -242.792 615.006 -241.38 612.448C-237.949 610.119 -233.69 609.282 -230.378 606.734C-223 601.489 -216.824 594.504 -208.351 590.855C-209.775 590.674 -211.199 590.494 -212.659 590.3C-212.19 588.476 -211.739 586.645 -211.329 584.814C-219.06 586.935 -223.918 594.162 -231.955 595.391C-231.106 594.007 -230.31 592.602 -229.462 591.116C-229.697 588.998 -232.299 585.027 -228.906 584.468C-224.108 582.675 -218.63 583.482 -214.078 580.958C-199.824 573.738 -188.147 562.694 -175.382 553.209C-169.853 548.922 -162.46 548.814 -155.86 547.126C-144.845 545.142 -133.843 541.676 -125.04 534.621C-125.15 533.909 -125.417 532.5 -125.55 531.795C-124.132 529.01 -122.765 526.199 -121.449 523.362C-123.66 522.891 -125.871 522.42 -128.118 521.935C-123.856 517.014 -118.145 512.626 -111.137 513.294C-113.183 516.269 -115.228 519.243 -117.226 522.253C-111.086 520.9 -106.074 517.096 -101.839 512.663L-103.485 509.701C-100.377 506.473 -96.0564 507.256 -92.0608 507.929C-89.2963 500.139 -81.0217 496.944 -75.9803 490.921C-73.0337 490.874 -70.1106 490.835 -67.1936 490.759C-64.4964 487.061 -61.651 483.456 -59.2442 479.559C-52.3977 478.809 -45.2138 478.19 -39.4958 473.942C-38.0157 469.013 -35.335 464.417 -34.8839 459.187C-28.2946 451.042 -17.2439 450.17 -7.97797 446.798C-3.00796 445.192 0.847151 441.57 3.97996 437.597C2.43965 436.668 0.90514 435.724 -0.670662 434.78C3.44357 431.02 8.06772 427.715 13.1204 424.925C17.8366 423.34 22.9252 424.097 27.8185 423.628C33.853 423.435 39.5948 421.479 45.2545 419.628C45.0741 421.346 44.5491 422.987 43.7031 424.478C39.2278 429.213 32.5264 432.886 25.834 430.368C25.3461 431.927 24.7872 433.459 24.1573 434.963C20.8155 437.378 16.6152 438.221 13.0469 440.222C15.957 440.808 18.9016 440.784 21.6333 440.152C34.9544 436.411 45.2586 426.048 58.8312 422.972C54.4885 435.001 44.513 443.845 34.6201 451.537C37.4328 450.549 40.4339 449.923 43.5396 449.676C41.6686 452.153 39.6196 454.457 37.458 456.682C42.1905 453.696 46.8969 450.253 49.5397 445.179C53.6623 437.372 56.145 428.785 60.6345 421.139C64.273 423.561 68.3998 425.277 72.6963 426.155C70.7345 422.538 67.8363 419.429 63.3889 419.334C67.717 416.028 72.8486 413.583 78.4931 412.139L76.6515 416.841C82.2977 416.64 87.7142 415.468 92.6022 413.392C89.3046 411.825 85.8022 412.873 82.451 413.483C84.0766 409.616 86.3291 406.029 89.1454 402.822C82.1246 402.666 75.314 403.777 69.1307 406.086L67.8317 403.861C65.3357 405.158 63.1107 406.789 61.2251 408.705C61.528 407.122 61.441 405.462 60.9698 403.829C60.4985 402.196 59.6533 400.627 58.4885 399.223C56.548 400.832 54.9065 403.141 52.5484 403.933C50.2743 403.832 48.6749 401.747 46.7501 400.701C49.6119 396.845 52.022 392.469 55.9395 389.473C59.5162 386.823 64.2024 387.406 68.3898 387.484C76.5533 387.867 84.7602 387.512 92.8485 388.192C89.1058 389.592 85.0489 389.65 81.1427 390.265C77.2364 390.881 75.3076 394.707 72.9947 397.371C75.1371 397.129 77.155 396.787 79.2503 396.561C85.4466 395.692 91.1399 399.141 97.099 400.342L94.7085 402.838C96.1777 402.59 97.6524 402.275 99.1157 402.042L100.834 395.249C105.916 393.619 110.993 392.003 115.943 390.029C108.842 387.248 101.264 388.192 93.881 388.012C100.992 383.71 104.644 376.216 108.02 369.009C109.844 369.998 111.668 370.987 113.48 371.954C116.476 368.906 119.892 366.039 121.59 362.019C122.513 360.08 120.817 358.764 119.4 357.729C117.085 358.933 114.838 360.541 112.038 360.32C116.396 357.577 120.944 355.056 125.664 352.768C122.738 352.395 118.941 353.567 116.755 350.995C115.711 346.707 115.439 342.121 112.797 338.358C117.485 335.972 122.134 333.531 126.743 331.035L125.553 336.164C128.206 335.349 130.83 334.506 133.424 333.583C134.104 328.083 140.374 327.913 143.349 324.239C147.988 319.191 154.483 316.723 160.659 314.182C167.048 316.922 173.625 319.211 180.319 321.025C178.582 323.056 176.885 325.086 175.195 327.153L178.614 330.448C180.354 330.031 182.065 329.586 183.793 329.147L181.7 334.489C172.922 337.4 164.526 342.264 155.061 342.538C152.777 342.828 151.485 340.691 150.078 339.316C153.626 338.925 156.981 337.947 159.972 336.43C154.871 335.905 149.934 336.952 146.015 339.39L146.431 345.439C143.32 346.898 140.227 348.364 137.159 349.925C142.475 352.402 147.924 350.932 152.962 348.838C148.972 353.797 142.552 355.761 137.676 359.687C135.901 358.991 134.126 358.296 132.208 357.545C131.149 360.563 130.131 363.476 129.154 366.44C136.917 365.911 143.64 361.817 150.874 359.502L150.001 365.286C153.492 363.221 156.994 360.92 160.425 358.643C159.092 355.512 157.77 352.352 156.46 349.213C159.66 347.789 162.816 346.004 166.351 345.604C170.531 345.388 174.582 346.391 178.609 345.257C185.138 343.592 190.508 339.397 195.832 335.527C194.368 335.606 192.909 335.67 191.421 335.705C190.375 333.149 189.316 330.624 188.24 328.143C190.989 326.354 193.599 324.081 196.957 323.611C200.599 323.273 204.314 323.262 208.047 323.579C207.989 321.531 207.884 319.499 207.797 317.422C205.101 318.544 202.181 319.286 199.133 319.624L199.846 317.175C203.585 313.902 209.613 312.419 209.623 306.382C214.013 303.746 219.043 301.941 224.441 301.065C233.352 299.801 242.494 303.176 251.215 300.671C259.518 298.345 265.739 292.081 271.318 285.942C270.6 285.421 269.136 284.35 268.401 283.822C284.079 276.834 297.238 265.77 311.16 256.051C315.307 252.939 320.932 251.178 323.226 246.156C325.888 241.398 328.248 236.47 330.928 231.719C325.713 232.645 320.142 233.535 315.203 230.88C311.973 239.912 304.334 246.033 298.234 253.031L299.227 246.418C295.955 250.748 292.647 255.219 287.897 258.095C288.551 255.691 289.212 253.273 289.801 250.827C285.285 253.417 283.89 258.809 281.574 263.05C276.858 264.635 272.081 263.708 267.48 262.438C263.31 261.217 260.051 264.677 257.057 266.936C261.571 268.76 266.351 269.803 271.11 270.004C275.505 270.232 279.965 269.25 284.282 270.409C280.325 272.72 275.292 272.448 271.521 275.073C266.804 278.465 261.571 281.295 255.933 283.503C256.949 283.627 259 283.881 260.01 284.019C255.79 287.789 251.652 291.661 247.289 295.272C240.38 294.093 233.999 299.3 227.146 296.616C236.606 287.26 249.412 282.168 258.764 272.668C249.914 274.35 240.4 274.227 231.949 270.918C229.029 266.873 227.662 261.996 225.348 257.606C236.739 257.382 243.921 247.461 254.257 244.284C254.786 245.759 255.214 247.251 255.538 248.751C254.194 252.652 250.438 254.819 247.291 257.156C250.186 256.351 253.07 255.627 255.978 254.947C255.437 254.289 254.879 253.624 254.332 252.929C261.249 247.606 267.928 241.95 274.881 236.642C271.562 236.646 268.26 236.503 264.981 236.197C267.339 233.156 269.661 230.05 271.812 226.859C273.696 229.159 275.153 232.235 278.228 233.114C290.453 224.993 298.859 213.269 302.19 199.697C309.763 204.671 318.663 200.245 326.867 200.421C327.694 194.704 332.564 191.102 335.855 186.779C337.464 188.37 339.078 189.947 340.669 191.531C353.037 179.278 366.406 167.848 380.689 157.316C390.657 162.713 401.871 165.973 410.913 172.947C421.443 167.34 432.524 161.058 439.091 150.827L438.066 147.903C441.161 145.322 444.513 142.985 448.093 140.915C449.907 137.798 444.283 137.518 442.574 135.87C448.058 133.11 453.845 130.932 459.096 127.72C452.815 126.975 447.36 130.657 442.565 134.116C440.975 135.038 440.844 136.994 440.285 138.526C434.275 143.414 423.938 144.136 421.91 152.764C423.521 153.566 425.131 154.369 426.736 155.135C424.25 158.709 421.85 162.798 417.661 164.606C414.461 165.876 411.291 163.827 408.303 162.829C409.846 159.778 411.484 156.747 413.098 153.723L411.862 151.128C417.37 149.488 422.164 146.62 425.821 142.78C419.726 145.113 412.09 146.206 408.905 152.613C403.789 153.286 397.892 152.71 394.373 148.415C392.183 146.321 392.084 143.227 392.265 140.415C397.809 140.166 402.953 138.011 408.399 137.175C407.55 139.605 406.653 142.052 405.733 144.454C414.582 142.772 422.277 138.183 430.295 134.441C435.384 131.904 439.788 128.188 444.745 125.359C442.247 125.256 439.742 125.116 437.242 124.806C441.96 122.432 447.254 121.725 452.339 120.559L451.675 117.862C454.512 115.061 457.302 112.172 460.027 109.241C459.31 108.668 457.916 107.521 457.222 106.94C458.423 103.875 459.527 100.532 462.405 98.5703C469.846 92.9037 478.815 89.3463 485.679 82.8531L480.829 82.4806C485.178 78.4347 489.879 74.0119 496.165 73.2816C498.464 72.6378 502.158 73.0892 503.052 70.2303C502.996 67.3422 502.231 64.4853 502.245 61.5734C503.333 59.8131 504.908 58.3512 506.843 57.3039C508.778 56.2564 511.021 55.6526 513.393 55.5399C515.176 52.1883 516.854 48.7948 518.525 45.3649L522.334 51.0098C525.386 47.5031 528.116 43.2522 532.964 42.0103C534.384 43.6133 535.691 45.138 537.063 46.7051C533.54 50.4736 530.069 54.1081 526.189 57.4795C530.277 57.7593 534.382 58.046 538.481 57.9864C537.327 57.5344 535.054 56.5411 533.906 56.0742C536.621 52.6389 538.931 48.9471 540.805 45.047C541.819 44.7578 542.845 44.4388 543.865 44.1347C546.413 40.1902 551.097 39.1584 555.253 37.697C553.104 42.7831 549.913 47.3928 545.822 51.3197C552.448 49.0813 558.833 46.4213 564.932 43.3589C569.85 40.8918 572.286 35.7189 575.548 31.5734C573.444 31.2985 571.024 31.5178 569.444 29.7491C566.771 28.0502 564.446 23.8443 560.745 25.295C557.044 26.7457 554.561 29.583 551.727 32.06L555.319 32.3C551.747 39.1728 543.308 39.3343 536.571 40.6427C535.052 39.2927 533.527 37.9578 532.014 36.5929L534.326 32.4695C541.427 35.2508 548.562 30.9921 553.07 25.7557C550.632 23.565 548.216 21.3663 545.766 19.1537C548.558 16.626 551.344 14.1131 554.053 11.4843C554.896 8.96564 555.554 6.03134 558.104 4.64456C563.26 1.51584 568.559 -1.55742 572.723 -6.12226C572.553 -3.49416 572.449 -0.87471 572.285 1.7385C569.293 2.42295 566.408 3.34898 563.666 4.5062C563.517 7.60551 563.297 10.6943 563.006 13.7725C565.495 10.9203 567.905 7.79739 571.434 6.15908C577.59 3.25004 584.717 2.98637 590.748 -0.22923C594.548 -2.44805 597.757 -5.32283 600.211 -8.70728C592.1 -4.6761 583.338 -2.22203 574.891 0.785068C574.889 -0.72592 574.922 -2.17133 574.979 -3.72797L573.261 -5.97984C579.156 -9.00802 584.414 -13.2301 590.656 -15.5735C592.816 -16.9069 594.346 -14.5399 595.822 -13.4468C600.835 -19.2921 608.892 -20.0492 615.693 -22.826C613.626 -19.711 611.594 -16.5773 609.594 -13.4246C617.484 -15.7405 625.643 -17.3329 633.907 -15.7951C632.665 -18.2721 631.631 -20.6509 630.474 -22.975ZM493.095 21.6239L495.563 22.5904C492.511 26.0769 488.619 28.905 484.114 30.9089C478.813 33.5693 472.608 34.983 468.343 39.2333C464.866 42.8827 467.527 48.1127 468.246 52.3415C465.066 53.0871 461.881 53.7959 458.66 54.4392C459.047 54.9166 459.813 55.8863 460.176 56.3717C455.213 59.2158 450.624 62.6702 445.839 65.7902C438.494 67.135 430.994 67.0977 423.48 67.8274C422.453 66.8933 421.433 65.9443 420.423 64.914C427.708 59.0718 435.072 53.3751 442.515 47.8241C452.509 41.4414 462.623 35.2253 472.671 28.9151C470.934 28.8012 469.191 28.6508 467.459 28.4704C468.03 28.0074 488.451 10.9492 496.52 9.16714L497.168 5.47371C501.51 2.23151 505.762 -1.09706 510.044 -4.44848C513.593 -2.16584 517.763 -3.24403 521.491 -3.92884C512.514 4.98023 505.574 17.1066 493.095 21.6239ZM415.092 90.0788L413.456 87.7217C398.524 99.7045 388.269 117.209 370.484 125.655C370.329 128.646 369.304 131.462 367.504 133.84C369.513 132.997 371.522 132.102 373.538 131.295C371.925 133.478 370.64 136.287 367.887 137.251C365.591 137.747 363.177 137.913 360.733 137.744C360.526 140.049 358.632 141.383 356.979 142.675C342.645 153.759 322.731 154.832 309.338 167.435C310.154 169.073 310.869 170.74 311.478 172.427C307.785 174.764 303.905 176.884 299.86 178.774C298.821 172.12 297.757 165.113 300.162 158.658C301.041 157.678 302.014 156.768 303.071 155.936C323.152 140.427 343.183 124.852 363.164 109.212C363.726 108.665 364.46 108.277 365.294 108.085C366.127 107.893 367.03 107.905 367.912 108.12C366.057 110.191 364.255 112.231 362.358 114.251C365.387 112.402 368.242 110.355 370.901 108.124C370.646 106.854 370.118 105.609 369.346 104.46C372.164 102.492 374.57 99.5385 378.087 98.8734C380.988 99.1516 379.003 102.442 379.201 104.132C382.117 99.9891 385.508 96.1457 389.328 92.6532L389.628 89.0123C395.847 83.5883 402.566 78.72 409.19 73.7803C408.38 75.8485 407.576 77.9017 406.771 79.9551C411.15 77.0363 415.314 73.8278 419.74 70.9964C423.705 74.7287 423.521 80.2686 420.987 84.6992C422.051 84.9101 424.126 85.3109 425.173 85.5148C423.41 89.4408 418.619 89.1776 415.092 90.0788ZM238.465 207.963C241.664 199.794 250.529 196.608 256.951 191.4C258.724 193.98 260.27 196.657 261.576 199.407C254.465 203.864 246.397 205.956 238.388 207.95L238.465 207.963ZM223.944 214.872C227.223 212.006 230.827 209.437 234.711 207.196C231.864 210.646 228.6 214.276 223.867 214.859L223.944 214.872ZM159.671 275.508C159.32 274.941 158.599 273.749 158.195 273.213C146.848 281.846 135.43 290.4 123.572 298.352C127.768 288.789 135.018 280.525 137.06 270.032C139.869 268.455 142.559 265.665 146.082 266.289C153.787 267.162 161.562 267.805 169.079 269.839C167.136 273.283 163.144 274.431 159.589 275.51L159.671 275.508ZM-4.21782 384.342C-4.8396 385.061 -5.67442 385.611 -6.64759 385.943C-7.62074 386.274 -8.70188 386.377 -9.79453 386.243C-7.00528 383.199 -4.03813 380.328 -1.26664 377.278C-4.56256 379.112 -8.1235 380.595 -11.8853 381.7C-6.63183 376.704 -0.570445 372.625 5.05137 368.048C9.45534 365.587 14.0543 363.377 18.824 361.429C11.3006 369.397 3.31903 376.706 -4.30055 384.344L-4.21782 384.342ZM-328.623 632.766C-330.261 633.394 -331.681 631.843 -333.142 631.339C-331.26 629.828 -329.384 628.332 -327.473 626.849C-326.409 627.06 -324.292 627.46 -323.246 627.664C-325.008 629.445 -326.355 631.732 -328.706 632.768L-328.623 632.766ZM-337.284 636.685C-340.225 638.965 -340.23 634.535 -337.569 634.119C-335.613 633.255 -336.046 636.243 -337.366 636.687L-337.284 636.685Z" fill="#DDDEDF"/>
</svg>
