<svg id="Layer_1" data-name="Layer 1" xmlns="http://www.w3.org/2000/svg" viewBox="0 0 1323.33 716.39"><defs><style>.cls-1{fill:#006741;}</style></defs><path class="cls-1" d="M1009.91-1.09c5.39-2.91,11.21-5.58,16.64-8.47l21.79,38.69c-4.45,3.44-12.31,5.46-14.44,9.79-2.39,3.9-5.52,7.62-8.32,11.42,9.09-4.67,17.79-9.58,26.57-14.44l293,520.24L96.63,706.83,21.79,573.93c1.63-3.23,1.94-6.75,4.55-9.74,5.36-3.38,13.13-5.19,19.6-7.82a48,48,0,0,0,15.11-8.44,57.83,57.83,0,0,0-3.12,7.35c5.32-2.71,5.32-8,13.32-9.1.29.51.72,1.06,1.06,1.59a23.15,23.15,0,0,0-7.41,2.8c3.18,1,6.49,1.79,9.72,2.7A55.23,55.23,0,0,0,87.9,542.68l-6,1.53-3.15-3.71-4.37,1.24C80,533.62,89.17,526.88,101,522.17l5,1.1q5.37-.6,10.48-1.63c3.29-2.07,4.77-4.87,8.33-6.84,7.39-4.44,16.89-7.88,22.35-13.23.1,1,.19,2,.3,3,2.37-.12,4.76-.23,7.13-.31-3.44,5-13.12,7.53-15.45,12.84,1.84-.43,3.71-.82,5.69-1.23,2.68.38,7.5,2.57,8.54.33,2.74-3.06,2.23-6.86,5.88-9.67,10.57-8.88,25.77-15.61,39.08-23.25,6-3.29,6.83-8.28,9.61-12.57a42.45,42.45,0,0,1,18.88-19.55c.9.15,2.67.49,3.56.65q5.53-1,11.15-1.88c.39,1.55.78,3.1,1.19,4.68,6.68-2.37,12.82-5.77,12.64-10.59-4,1.07-8,2.14-12,3.17,2.3-4,7.63-7,13.69-9.4l3.63,1.44c4.41-1.77,3.82-4.78,3.34-7.55,10.2-1.05,15.06-6.31,23.23-9.08.34-2,.67-4,1-5.94,5-1.43,9.84-3,15-4.19,1.61-4.55,3.08-9.35,9-12.77,6.44-.48,12.56-1.8,19.27-1.55,11-3.59,13.18-11,18.36-16.9,2.52-3.2,7.51-5.42,12.88-7.12,1,1.14,2.1,2.28,3.15,3.45a71.8,71.8,0,0,0,13.88-8.29c2.47-3,2-6.55,3.05-9.82.82-4.07,3.86-7.75,6.76-11.38a27.8,27.8,0,0,0-6.34.53c-6.46,2.53-11.79,6.67-9.21,11.48-2,.16-4,.38-6,.64-3.4,2-4.87,4.76-7.76,7a7.63,7.63,0,0,1,.9-5.81c6-8.63,20.24-14.5,25.45-23.37-15.76,1.66-28,7.47-38.75,13.35a15.93,15.93,0,0,0,3.22-5.84c-3.34,1-6.47,2.14-9.52,3.37a40.08,40.08,0,0,1,15.83-6.95c10.35-2,21.55-2.73,31.73-4.95a18.54,18.54,0,0,1-5.26-8.71c4.43,1.72,8.12,4,7.82,7a29.45,29.45,0,0,0,10.62-9.46l-6.18.75a20.66,20.66,0,0,1,5.92-10.44c1.68,2.4,0,4.66-1.08,6.87a69.82,69.82,0,0,0,14.24-3.4,23,23,0,0,1-6.07,13.21l2.72,1.12a26.69,26.69,0,0,1-6.81,4,24.67,24.67,0,0,1,6.2.69,22.25,22.25,0,0,1,5.64,2.17c-2.23,1.15-5.34,2-6.57,3.52-.09,1.55,2.42,2.86,3.57,4.28,5.2-1.53,11-2.7,15.21-5,3.71-2.14,3.41-5.38,3.71-8.22.29-5.57,1.52-11.09,1.42-16.65-2.14,2.39-2.6,5.13-3.76,7.71s-6.22,3.48-9.84,4.76c.51-1.42,1.14-2.75,1.63-4.15,1.7-4.1-2.17-8.33-3.13-12.49l-3.42,1.35c.46-1,1-1.93,1.44-2.9L426,313c2.56-3.27,5.1-6.53,8.09-9.68,2.88,5.11,1,10.14.48,15.17,6.17-4.36,16.08-6,25.59-7.55-1.08-1.34-2.17-2.69-3.23-4,4.17-1.7,8.15-3.71,13.44-4.43,2.56-.42,4.08.87,5.27,1.94-1.76,1.44-4,2.79-4,4.71a112.16,112.16,0,0,0,10.92-8.42c.2,2-1.65,4.47,1.42,6.22,5.37,1.17,11.2,1.84,15.75,4q5.24-4.38,10.67-8.66l-6.66.26c1.29-1.71,2.62-3.4,4-5.06,7.09.13,7.9-4.1,12.87-5.72,6.88-2.61,10.64-6.74,14.47-10.66a72.2,72.2,0,0,1-6.87-14c-2.75,1-5.51,1.89-8.3,2.81l-3.88-2.67c.69-1.13,1.42-2.24,2.15-3.37l-7,.85c-4.55,5.64-11.55,10.81-12.8,17.19-.58,1.51,2,2.62,3.64,3.72a15,15,0,0,1,4.63-6.4c.18,3.52-1.62,6.75-5.1,9.14l-7.69-.93c-2.15,2-4.32,3.89-6.6,5.81-2.66-3.87-.26-7.4,2.89-10.59-6.71,2.17-9.83,6.31-15.3,9.19l2.22,3.94c-3.95.39-7.77.77-11.64,1.11,1.41-5.2,7.27-9.32,10.91-14l-7.46,0c3-2.15,6.23-4.28,9.46-6.36,3.87,1.24,7.78,2.47,11.66,3.7,2.12-2,4.7-4,5.54-6.32.67-2.81-.22-5.66,1.61-8.26,2.74-4.25,8.6-7.44,14.05-10.63-.24,1-.46,2-.65,3,3.16,1,6.29,2,9.35,3,2.54-1.67,5.69-3.2,6.61-5.42a23,23,0,0,0,1.09-7.51c2.61.26,5.19.55,7.83.83a15.35,15.35,0,0,0-3.63,5.63l3.2-.22c4.53-2.18,7-6.11,14.7-5.47a24.17,24.17,0,0,0,8.19-9.47c2.45-5.9-1-12.46,3-18.1,3.75-5.37,12.34-8.92,20.7-12l2.43,2.2c10.4-9.87,25.77-17.6,39.49-26,4.36-2.47,7.15-6.1,13.77-7.11,6.33-1.3,12.84-2.37,19.15-3.68-1.67,3.43-3.34,7.11-.42,10.74-11.83,1.23-20.36,5.75-29.87,9.13l8.53,0c-5.83,1.75-11.85,3.51-16,6.42,3.13-.18,6.27-.37,9.45-.51-3.73,2.78-10.74,3.15-16.38,4.27-2.47,3-1.74,6.36-.55,9.61,1.16,3-3.56,4.79-6.73,6.58a17.37,17.37,0,0,1-2.58-9.85c.12-3,1.8-5.92.73-9-3.33,2.43-3.46,5.87-7.16,8.14a55.47,55.47,0,0,0-12.24,9.66c-.06-.7-.19-2.12-.27-2.82-5.21,2.46-10.54,4.85-15.57,7.42.85,4.81-6.39,8.57-3.62,13.5,12.84-5.41,20.55-13.54,33.56-18.86-3,5.82-3.73,12.28-.31,18.35,4.88,2.41,11,3.86,16.36,5.9,1.37-7.7,14.71-11.5,19.74-18.16q-2.75-.78-5.58-1.35c-5.1.49-8.22,2.81-11.5,4.69,1.3-1.88,2.49-3.75,3.64-5.65.79.44,1.58.89,2.42,1.33,7.45-4.12,15.3-8,22.73-12.18a38.28,38.28,0,0,0-.37,6.76c4.1-1.28,8.29-2.52,12.56-3.63-2.75-1.53-6.54-2.84-7.37-5,11.52-7.41,27.28-11.85,44.91-12.66-5.63-5.66.87-11.22,1.42-16.8,7.37,0,12.43-2.86,18.26-4.63l-5.61-3.77a419.07,419.07,0,0,0,47.46-23.45c-5.94-7.33-9-15.27-17.08-22.14,8.15-6.54,17.22-13.37,30.9-16.73l3.63,1a69.59,69.59,0,0,0,9.87-6c4.15-.89,4,2.94,5.91,4.28,4.05-3.42,7.37-7.11,12-10.32.35,4.33-4.86,7.63-9.73,10.51-1.33,1-3.84.86-5.84,1.07C779,114,777.08,121,765.87,121.42c-.87-1.18-1.74-2.35-2.56-3.52-4.8,1.3-10.24,2.49-12.95,5.14-1.92,2,.39,4.39,1.38,6.52,4-.72,8.07-1.5,12.08-2.27L767,128.4c2.62-3.55,6.73-6.49,12-8.56-3.56,3.88-5.68,8.93-14.15,10.41-1.35,3.39-1.17,7.45,4,10.29,2.46,1.71,6.4,2.11,10,2.28.85-3.73,4.08-7,5.67-10.58-3.18.32-6.39.66-9.54,1,3-5.82,9.57-10.54,15.1-15.57,3.72-3.18,8.88-5.76,13-8.82a33.92,33.92,0,0,0,0,5.14c3.47-2.94,4.88-6.45,6.85-9.77l3.38.74c3.84-1.63,7.79-3.21,11.79-4.74.66.55,2,1.61,2.67,2.15,4-.49,8.4-.88,11.17-2.62,7.94-4.44,13.33-10.13,22.26-14.09l0,3.33c5.58-2.52,11.67-5.23,13.19-9.41,1-1.49.82-4,4.55-4.34,3.68.35,7.25,1.17,11,1.47a15,15,0,0,0,5.89-2.66,7.67,7.67,0,0,0,2.87-4.24c4.44-.86,8.93-1.63,13.47-2.39l-6.84-3.19c4.76-1.69,10.44-3.09,12.49-6.24-1.91-1.13-3.73-2.18-5.6-3.28C907,56.73,902,58.69,897.36,61a54.59,54.59,0,0,1,.51-8.38c.47.83,1.52,2.47,2,3.3a105.72,105.72,0,0,1,14.73-3.49c.46-.66,1-1.32,1.45-2,5.28-1.3,7-4.37,9.3-7a69.74,69.74,0,0,0-18.28,4.94,94.15,94.15,0,0,1,12-12.1c3.61-3.07,10.44-4.16,16-5.93.15,1.46-.35,3.07,1.75,4.33,1.92,2,7.06,4,4.86,6.37s-6.06,3.73-9.49,5.39l0-2.46c-9.11,1.68-10.12,7.38-12.42,11.81,1.57,1.17,3.13,2.34,4.73,3.51L930,58.12c-2.87-5.11,3.24-9.49,10.35-12l7.73,5.65c3.49-1.62,7-3.24,10.57-4.79,3.3-.3,7.1-.44,9.11-2,4.49-3.16,8.91-6.42,15.13-8.75-3.37-.16-6.72-.37-10.07-.54a28.41,28.41,0,0,1-4.35,5.54q-6-.34-11.89-.54c3.88-1.38,8.09-2.68,10.52-4.9,4.29-3.86,5.3-8.66,10-12.4a36.93,36.93,0,0,1,11.71-5.5C982.92,23,979,28.62,974.32,34c1.93.17,3.78.3,5.77.43l2.71,1.4c4.42-3.67,10.31-6.78,13.89-10.76,1.91-1.32-1-2.61-2.22-3.72,7.93-2.78,9.66-8.15,13.85-12.46C1004.15,10,1000,11,995.74,12c3.71-5.09,6.51-10.45,5.33-16.21C1004.12-3.08,1007.05-2.12,1009.91-1.09ZM940,87.21l-1-1.78a33.14,33.14,0,0,0-11.71,6.87c-3.89,3.31-6.28,7.36-12.11,9.79-5,2-11.41-.39-16.74-1.33-1.25,2.07-2.46,4.16-3.59,6.27-.57-.31-1.73-.94-2.32-1.23-4.1,3-8.94,5.79-13.38,8.7-2.41,4.83-3.07,9.92-4.72,14.93,1.1.8,2.21,1.59,3.43,2.38q12.23-6.47,23.91-13.14c9.09-6.09,18-12.27,27-18.41,0,1.19,0,2.39.08,3.58.64-.33,24.35-12.35,27.39-17.62l4.77,0c4.55-2.59,9.2-5.12,13.88-7.66-2.57-2.65-.8-5.36.42-7.81C963.05,75.83,946.92,79.24,940,87.21Zm-94.75,45.53,2.86,1.36c-16.71,8.83-40,13.91-52.48,25.05a31.46,31.46,0,0,0-10.73,1.15c1.26-1.27,2.6-2.54,3.82-3.82-2.94.86-6.65,1.43-8.14,3.19a10,10,0,0,0-1.31,4.8c-3-.11-4.84,1-6.65,2-15.5,8.53-18.75,21.91-36.11,29.63-2-.73-4.07-1.39-6.16-2a80.21,80.21,0,0,0-9.2,7.19c8.39,1.42,17.23,2.89,25.69,2a29.3,29.3,0,0,0,3.75-1.68q32.55-17.93,65.32-35.72a3.45,3.45,0,0,0,1.65-1.32,2.17,2.17,0,0,0,.2-1.78c-2.82,1-5.59,2-8.35,3.11a69.48,69.48,0,0,1,8.63-5.14,19.82,19.82,0,0,1,4.53,1.45c2.77-1.7,6.77-3,8-5.33-.08-2-4.46-1-6.6-1.31a102.11,102.11,0,0,0,15.61-5.64l4.67.19c7.51-3.63,14.36-7.66,21.29-11.62l-8.11,1c4.14-2.65,8.63-5.13,12.67-7.82-4.39-3.09-11.48-3.56-17.37-2.31-.17-.75-.49-2.19-.65-2.92C846.83,127.17,846.71,130.44,845.22,132.74Zm-167.17,107c10.72-1.29,15.63-7,22.88-10.75a98.79,98.79,0,0,0-9.77-4c-6.37,4.34-9.8,9.59-13.11,14.8Zm-10.2,9.1a67,67,0,0,0,10.82-6.47C674,244,669.05,245.8,667.86,249ZM584.38,286c.69.29,2.14.91,2.79,1.24C575.08,294,563.08,300.79,551.81,308c12.6-1.82,23.83-5.85,37.42-6.11,2.27-1.74,6.09-3.26,5.63-5.71-.39-5.32-.47-10.65-2.35-16-4.58.95-6.43,3.53-8.14,5.82ZM430,385.35a5,5,0,0,0-2.27,1.48,2.8,2.8,0,0,0-.68,2.1c4.14-1.57,8.09-3.27,12.24-4.82a33,33,0,0,0-6.65,6.72c6.88-3,12.66-6.7,19-10a88,88,0,0,0,9.75-8.62c-10.88,4.24-21,8.87-31.43,13.22ZM82.19,578.57c-1,1,.89,2.17,1.39,3.22,2.11-1.12,4.2-2.23,6.27-3.37-.17-.74-.48-2.22-.64-2.95-2.44,1-5.49,1.67-7,3.16ZM76.37,584c-3.19,1.75,2.46,2.22,3.24.47,1.29-1.24-2.56-1.26-3.25-.42Z" transform="translate(-21.79 9.56)"/></svg>