<svg width="43" height="44" viewBox="0 0 43 44" fill="none" xmlns="http://www.w3.org/2000/svg">
<path d="M14.448 11.8667C14.448 12.2396 14.75 12.5423 15.1236 12.5423H22.8066C23.1802 12.5423 23.4822 12.2396 23.4822 11.8667C23.4822 10.0752 22.431 8.52884 20.9158 7.79925C21.3123 7.34325 21.5609 6.75552 21.5609 6.10496C21.5609 4.67347 20.3963 3.50882 18.9648 3.50882C17.5333 3.50882 16.3686 4.67347 16.3686 6.10496C16.3686 6.75552 16.6172 7.34325 17.0138 7.79925C15.4992 8.52884 14.448 10.0752 14.448 11.8667ZM17.7204 6.10496C17.7204 5.41793 18.2791 4.85992 18.9654 4.85992C19.6518 4.85992 20.2105 5.4186 20.2105 6.10496C20.2105 6.79132 19.6518 7.35001 18.9654 7.35001C18.2791 7.35001 17.7204 6.79132 17.7204 6.10496ZM18.9654 8.70043C20.4794 8.70043 21.7487 9.76848 22.0588 11.1912H15.8721C16.1822 9.76916 17.4515 8.70043 18.9654 8.70043Z" fill="white"/>
<path d="M6.90075 29.7378C6.90075 30.1107 7.20272 30.4133 7.5763 30.4133H18.0082C18.3817 30.4133 18.6837 30.1107 18.6837 29.7378C18.6837 29.3649 18.3817 29.0622 18.0082 29.0622H8.25185V4.31677C8.25185 3.32776 7.88233 2.42522 7.27771 1.73346H10.4075C10.7811 1.73346 11.0831 1.43081 11.0831 1.05791C11.0831 0.685002 10.7811 0.382355 10.4075 0.382355H4.31744C3.27101 0.382355 2.28336 0.789712 1.52944 1.53485C0.789712 2.28268 0.382355 3.27101 0.382355 4.31744V8.22889C0.382355 8.60179 0.685002 8.90444 1.05791 8.90444H6.90075V29.7378ZM1.73346 7.55266V4.31677C1.73346 3.62838 2.00165 2.97782 2.48467 2.49008C2.9785 2.00233 3.62973 1.73346 4.31744 1.73346C5.7415 1.73346 6.90075 2.89203 6.90075 4.31677V7.55266H1.73346Z" fill="white"/>
<path d="M31.0423 10.6217C31.4158 10.6217 31.7178 10.3191 31.7178 9.94617V4.3168C31.7178 2.1476 29.9526 0.382385 27.7827 0.382385H13.3077C12.9341 0.382385 12.6321 0.685032 12.6321 1.05794C12.6321 1.43084 12.9341 1.73349 13.3077 1.73349H27.7834C29.2075 1.73349 30.3667 2.89206 30.3667 4.3168V9.94617C30.3667 10.3191 30.6687 10.6217 31.0423 10.6217Z" fill="white"/>
<path d="M22.4222 35.5198C21.9953 36.6703 22.4986 37.9579 23.5626 38.4984L32.3305 43.5278C32.4346 43.588 32.5508 43.6177 32.667 43.6177C32.7629 43.6177 32.8588 43.5974 32.9487 43.5562L42.0024 39.4022C42.1956 39.3137 42.3361 39.1394 42.3814 38.9314L42.7881 37.0554C42.9651 36.24 42.9995 35.4077 42.8914 34.5802C42.8435 34.2099 42.505 33.9472 42.1341 33.9978C41.7646 34.0465 41.5032 34.3849 41.5525 34.7551C41.6403 35.428 41.6113 36.1055 41.4674 36.7689L41.133 38.3153L32.7021 42.1835L24.2057 37.3107C23.7233 37.0655 23.5018 36.4974 23.6896 35.99C23.8936 35.4395 24.5063 35.1577 25.0589 35.3618L28.4326 36.6136C28.6886 36.7088 28.9771 36.6406 29.1629 36.4399C29.348 36.24 29.3953 35.9475 29.2818 35.6989L23.7375 23.6139C23.5146 23.1282 23.7281 22.5513 24.2145 22.3283C24.7022 22.1041 25.2771 22.3196 25.4994 22.8053L30.262 33.1851C30.418 33.5236 30.8187 33.6736 31.1578 33.5175C31.4969 33.3621 31.6462 32.9609 31.4902 32.6217L30.1181 29.6311C29.8952 29.1453 30.1086 28.5684 30.595 28.3455C31.0821 28.1212 31.657 28.3367 31.8799 28.8224L33.252 31.8131C33.3662 32.061 33.6107 32.2069 33.8667 32.2069C33.9613 32.2069 34.0566 32.1873 34.1478 32.1455C34.4869 31.9901 34.6362 31.5888 34.4801 31.2497L33.4513 29.0069C33.2283 28.5211 33.4418 27.9442 33.9282 27.7213C34.4153 27.4977 34.9909 27.7125 35.2138 28.1982L36.242 30.441C36.3561 30.689 36.6007 30.8349 36.8567 30.8349C36.9506 30.8349 37.0466 30.8153 37.1378 30.7734C37.4769 30.618 37.6262 30.2168 37.4701 29.8776L36.7838 28.3806C36.677 28.1455 36.6669 27.8834 36.7567 27.6409C36.8466 27.3984 37.0256 27.2045 37.2614 27.0971C37.7478 26.8728 38.324 27.0883 38.547 27.574L40.4567 31.7368C40.5709 31.9847 40.8155 32.1306 41.0715 32.1306C41.1661 32.1306 41.2613 32.111 41.3525 32.0691C41.6917 31.9137 41.841 31.5125 41.6849 31.1733L39.7751 27.0106C39.2408 25.8473 37.8586 25.3359 36.6973 25.8696C36.2812 26.0608 35.9393 26.3648 35.7015 26.7438C35.0435 26.2607 34.1552 26.1297 33.3641 26.4938C32.9385 26.689 32.6028 26.9991 32.3711 27.3686C32.1981 27.241 32.0124 27.1288 31.8056 27.0518C31.7766 27.041 31.7462 27.0383 31.7171 27.0288V12.9645C31.7171 12.5916 31.4152 12.289 31.0416 12.289C30.668 12.289 30.366 12.5916 30.366 12.9645V27.0018C30.2532 27.0342 30.1397 27.0673 30.031 27.1173C29.7155 27.2619 29.4527 27.4727 29.2412 27.7206L26.7275 22.2412C26.1945 21.0786 24.8144 20.5652 23.6504 21.0995C22.4871 21.6332 21.9757 23.0134 22.5087 24.1767L24.7502 29.0616H20.9921C20.6185 29.0616 20.3165 29.3642 20.3165 29.7371C20.3165 30.11 20.6185 30.4127 20.9921 30.4127H25.3697L27.3727 34.7788L25.5284 34.0944C24.2827 33.6317 22.885 34.2707 22.4222 35.5198Z" fill="white"/>
<path d="M10.9852 16.2596C10.721 15.9955 10.2941 15.9955 10.0299 16.2596C9.76578 16.5231 9.76578 16.9507 10.0299 17.2149L11.4418 18.6268C11.5688 18.7538 11.7397 18.8247 11.9194 18.8247C12.0991 18.8247 12.2707 18.7538 12.3971 18.6268L15.2621 15.7618C15.5262 15.4976 15.5262 15.0707 15.2621 14.8065C14.9979 14.5424 14.571 14.5424 14.3068 14.8065L11.9194 17.1939L10.9852 16.2596Z" fill="white"/>
<path d="M14.9121 18.2677C14.9121 18.6406 15.2141 18.9432 15.5877 18.9432H28.1272C28.5008 18.9432 28.8028 18.6406 28.8028 18.2677C28.8028 17.8948 28.5008 17.5921 28.1272 17.5921H15.5877C15.2141 17.5921 14.9121 17.8948 14.9121 18.2677Z" fill="white"/>
<path d="M10.0299 23.7902L11.4418 25.2021C11.5735 25.3338 11.7465 25.4 11.9194 25.4C12.0924 25.4 12.2653 25.3338 12.397 25.2021L15.2621 22.3371C15.5262 22.0729 15.5262 21.646 15.2621 21.3818C14.9979 21.1177 14.571 21.1177 14.3068 21.3818L11.9194 23.7692L10.9851 22.835C10.721 22.5708 10.2941 22.5708 10.0299 22.835C9.76577 23.0991 9.76645 23.5267 10.0299 23.7902Z" fill="white"/>
<path d="M15.5877 25.5183H20.4293C20.8029 25.5183 21.1049 25.2156 21.1049 24.8427C21.1049 24.4698 20.8029 24.1672 20.4293 24.1672H15.5877C15.2141 24.1672 14.9121 24.4698 14.9121 24.8427C14.9121 25.2156 15.2141 25.5183 15.5877 25.5183Z" fill="white"/>
</svg>
