<svg width="70" height="70" viewBox="0 0 70 70" fill="none" xmlns="http://www.w3.org/2000/svg">
<rect width="70" height="70" rx="35" fill="#007A4D"/>
<path d="M37.9301 25.3362C37.8532 25.2815 37.7662 25.2425 37.6742 25.2214C37.5822 25.2003 37.4869 25.1975 37.3938 25.2133C37.3007 25.229 37.2116 25.263 37.1317 25.3132C37.0517 25.3634 36.9824 25.4288 36.9278 25.5058L31.0342 33.7991C30.9239 33.9546 30.8798 34.1475 30.9117 34.3354C30.9436 34.5234 31.0488 34.691 31.2042 34.8013C31.3597 34.9117 31.5526 34.9558 31.7405 34.9239C31.9285 34.892 32.0961 34.7868 32.2064 34.6313L38.1 26.338C38.1546 26.2611 38.1936 26.1741 38.2146 26.0822C38.2357 25.9902 38.2384 25.895 38.2226 25.8019C38.2068 25.7089 38.1729 25.6199 38.1227 25.54C38.0725 25.4601 38.0071 25.3908 37.9301 25.3362Z" fill="white"/>
<path d="M33.5411 36.5087C33.6965 36.619 33.8894 36.6632 34.0774 36.6314C34.2654 36.5996 34.433 36.4944 34.5434 36.339L40.4367 28.0456C40.4913 27.9686 40.5303 27.8816 40.5513 27.7896C40.5723 27.6976 40.575 27.6023 40.5592 27.5093C40.5434 27.4162 40.5095 27.3272 40.4593 27.2472C40.4091 27.1673 40.3436 27.098 40.2667 27.0434C40.1897 26.9887 40.1027 26.9498 40.0107 26.9288C39.9187 26.9077 39.8234 26.905 39.7304 26.9208C39.6373 26.9366 39.5483 26.9706 39.4683 27.0208C39.3884 27.071 39.3191 27.1364 39.2645 27.2134L33.3713 35.5068C33.3166 35.5838 33.2777 35.6707 33.2566 35.7627C33.2356 35.8547 33.2329 35.9499 33.2487 36.0429C33.2644 36.136 33.2984 36.225 33.3486 36.3049C33.3987 36.3848 33.4642 36.454 33.5411 36.5087Z" fill="white"/>
<path d="M32.3496 40.8864C32.5781 40.875 32.802 40.8635 33.0129 40.8378C33.6166 40.7878 34.2031 40.6116 34.7344 40.3205C35.2657 40.0295 35.7299 39.6301 36.0971 39.1482C36.1311 39.1 42.7736 29.7529 42.7736 29.7529L41.6014 28.9207C41.6014 28.9207 34.9477 38.2839 34.9249 38.3166C34.6694 38.6306 34.3528 38.8896 33.9943 39.0778C33.6358 39.266 33.2428 39.3794 32.8392 39.4113C32.6613 39.4329 32.4721 39.4415 32.2787 39.451C31.4561 39.4915 30.3295 39.5469 29.6094 40.5612L24.9113 47.7426L23.3807 46.6496L28.685 39.8273C29.3848 38.8421 29.0819 37.7475 28.8608 36.9481C28.8085 36.7585 28.7562 36.5729 28.72 36.3947C28.6113 35.8558 28.5137 34.8319 29.0868 34.0255C29.1394 33.9511 35.763 24.6307 35.763 24.6307L34.5908 23.7985C34.5908 23.7985 27.936 33.1631 27.9143 33.1943C27.5798 33.7027 27.3536 34.2746 27.2499 34.8743C27.1461 35.474 27.167 36.0886 27.3113 36.6799C27.3538 36.8899 27.4138 37.1083 27.4752 37.3312C27.6879 38.1001 27.7967 38.5957 27.5314 38.9702C27.5314 38.9702 16.6167 53.0118 16.5311 53.1225C15.8829 53.9594 14.9953 55.1054 16.1612 56.0936L18.2258 57.6972L18.2859 57.7392C18.5246 57.9009 18.8044 57.9914 19.0927 58C19.923 58 20.5 57.1131 20.9489 56.4231C21.0254 56.3053 30.7966 41.3708 30.7966 41.3708C31.0771 40.9764 31.5705 40.9247 32.3496 40.8864ZM19.0734 56.5356L19.0727 56.5351L17.0673 54.9784C17.0563 54.9691 17.0457 54.9593 17.0357 54.9489C17.0793 54.7621 22.4979 47.7851 22.4979 47.7851L24.1239 48.9461C24.1239 48.9461 19.2355 56.4209 19.0734 56.5356Z" fill="white"/>
<path d="M48.7606 43.7054C49.0334 43.2981 49.155 42.8081 49.1045 42.3205C49.0539 41.8329 48.8343 41.3784 48.4838 41.0357L48.0024 40.5549C47.6 40.151 47.0545 39.9221 46.4843 39.9181C46.0722 39.9162 45.6695 40.0415 45.3312 40.2769C45.236 39.7957 44.9753 39.3629 44.5942 39.0539C44.2132 38.7449 43.736 38.579 43.2454 38.5852H42.5676C42.077 38.5789 41.5998 38.7447 41.2187 39.0536C40.8376 39.3625 40.5766 39.7951 40.4812 40.2763C40.143 40.0413 39.7407 39.9162 39.3289 39.9181C38.7586 39.9224 38.2128 40.1512 37.81 40.5551L37.33 41.0351C36.9547 41.4067 36.7293 41.9033 36.6966 42.4305C36.6689 42.8832 36.7941 43.3322 37.0519 43.7053C36.5706 43.8004 36.1377 44.061 35.8285 44.442C35.5193 44.8229 35.3533 45.3001 35.3594 45.7908V46.4684C35.3533 46.9591 35.5193 47.4364 35.8285 47.8175C36.1378 48.1985 36.5708 48.4591 37.0522 48.5541C36.7942 48.9273 36.669 49.3763 36.6966 49.8291C36.7295 50.3572 36.9558 50.8546 37.3322 51.2265L37.8089 51.7037C38.2122 52.1076 38.7583 52.3365 39.3291 52.341C39.7407 52.3429 40.143 52.218 40.4812 51.9833C40.5767 52.4644 40.8377 52.8969 41.2188 53.2057C41.5999 53.5146 42.0771 53.6802 42.5676 53.674H43.2454C43.736 53.6802 44.2132 53.5144 44.5942 53.2054C44.9753 52.8964 45.236 52.4637 45.3313 51.9824C45.6695 52.2176 46.0721 52.3429 46.4841 52.341C47.0542 52.3369 47.5998 52.1083 48.0026 51.7048L48.483 51.2246C48.8338 50.8819 49.0535 50.4272 49.1042 49.9395C49.1549 49.4517 49.0333 48.9616 48.7605 48.554C49.2419 48.459 49.6748 48.1983 49.984 47.8173C50.2932 47.4363 50.4592 46.9591 50.4532 46.4684V45.7908C50.4592 45.3002 50.2932 44.8229 49.984 44.442C49.6748 44.061 49.242 43.8004 48.7606 43.7054ZM49.0157 46.4684C49.0251 46.6384 48.9669 46.8053 48.8538 46.9326C48.7407 47.0599 48.5819 47.1373 48.4119 47.1479H47.5473C47.4272 47.6958 47.2109 48.218 46.9084 48.6903L47.5195 49.3019C47.632 49.4294 47.6896 49.5963 47.6797 49.7661C47.6698 49.9359 47.5931 50.0949 47.4665 50.2084L46.9864 50.6883C46.854 50.8238 46.6734 50.9013 46.4841 50.904C46.4093 50.9051 46.335 50.8913 46.2656 50.8635C46.1962 50.8357 46.133 50.7944 46.0796 50.742L45.4676 50.1291C44.9955 50.4326 44.473 50.6494 43.9246 50.7693V51.6341C43.9138 51.8039 43.8364 51.9625 43.7092 52.0754C43.5819 52.1883 43.4153 52.2464 43.2454 52.237H42.5676C42.3976 52.2465 42.2308 52.1885 42.1034 52.0756C41.9761 51.9627 41.8985 51.804 41.8876 51.6341V50.7693C41.3395 50.6492 40.8172 50.4324 40.3451 50.1291L39.7336 50.742C39.6802 50.7944 39.617 50.8357 39.5475 50.8635C39.4781 50.8913 39.4039 50.9051 39.3291 50.904C39.1395 50.9012 38.9588 50.8237 38.8261 50.6883L38.3467 50.2084C38.2197 50.0952 38.1426 49.9362 38.1325 49.7663C38.1224 49.5964 38.18 49.4294 38.2928 49.3019L38.9048 48.6903C38.602 48.2181 38.3855 47.6958 38.2652 47.1479H37.4004C37.2304 47.1373 37.0716 47.0599 36.9585 46.9326C36.8454 46.8053 36.7873 46.6384 36.7969 46.4684V45.7908C36.7873 45.6208 36.8454 45.4539 36.9585 45.3266C37.0716 45.1994 37.2304 45.122 37.4004 45.1115H38.2652C38.3854 44.5637 38.6019 44.0416 38.9048 43.5696L38.2928 42.9577C38.18 42.8302 38.1224 42.6632 38.1325 42.4932C38.1427 42.3233 38.2197 42.1643 38.3467 42.051L38.8261 41.5715C38.9585 41.4358 39.1393 41.358 39.3289 41.3551C39.4038 41.3541 39.4781 41.368 39.5476 41.396C39.6171 41.4239 39.6803 41.4654 39.7336 41.5181L40.3452 42.1294C40.8174 41.8268 41.3397 41.6105 41.8876 41.4908V40.6255C41.8982 40.4555 41.9757 40.2966 42.1031 40.1835C42.2305 40.0704 42.3975 40.0124 42.5676 40.0222H43.2454C43.4154 40.0126 43.5822 40.0707 43.7095 40.1837C43.8368 40.2968 43.9141 40.4556 43.9246 40.6255V41.4908C44.4728 41.6103 44.9953 41.8266 45.4676 42.1294L46.0796 41.5181C46.1328 41.4654 46.1961 41.4239 46.2655 41.3959C46.335 41.3679 46.4094 41.3541 46.4842 41.3551C46.6737 41.3579 46.8543 41.4358 46.9865 41.5715L47.4665 42.051C47.5932 42.1646 47.6698 42.3236 47.6797 42.4934C47.6896 42.6633 47.6321 42.8301 47.5195 42.9577L46.9084 43.5696C47.211 44.0417 47.4273 44.5638 47.5473 45.1115H48.4119C48.5818 45.1221 48.7407 45.1994 48.8538 45.3267C48.9669 45.4539 49.0251 45.6208 49.0157 45.7908V46.4684Z" fill="white"/>
<path d="M42.9063 43.2553C42.3379 43.2555 41.7823 43.4242 41.3098 43.7401C40.8373 44.056 40.4691 44.505 40.2517 45.0302C40.0343 45.5553 39.9775 46.1332 40.0885 46.6906C40.1995 47.2481 40.4733 47.7601 40.8753 48.162C41.2773 48.5638 41.7894 48.8375 42.3469 48.9483C42.9044 49.0591 43.4822 49.0021 44.0073 48.7846C44.5324 48.567 44.9812 48.1986 45.297 47.726C45.6128 47.2534 45.7813 46.6978 45.7813 46.1294C45.7813 45.7519 45.7069 45.3781 45.5624 45.0293C45.4178 44.6806 45.2061 44.3637 44.9391 44.0969C44.6721 43.83 44.3552 43.6183 44.0064 43.4739C43.6576 43.3295 43.2838 43.2552 42.9063 43.2553ZM42.9063 47.5664C42.6221 47.5663 42.3443 47.4819 42.1081 47.324C41.8718 47.166 41.6877 46.9416 41.579 46.679C41.4703 46.4164 41.4419 46.1274 41.4974 45.8487C41.5529 45.57 41.6898 45.314 41.8908 45.1131C42.0918 44.9121 42.3479 44.7753 42.6266 44.7199C42.9053 44.6645 43.1943 44.693 43.4568 44.8018C43.7194 44.9105 43.9438 45.0947 44.1017 45.331C44.2595 45.5673 44.3438 45.8452 44.3438 46.1294C44.3433 46.5104 44.1917 46.8757 43.9222 47.1451C43.6527 47.4145 43.2874 47.566 42.9063 47.5664Z" fill="white"/>
<path d="M30.6093 44.2836C31.7044 44.679 32.848 44.9238 34.0089 45.0115C34.1219 44.4987 34.3468 44.0171 34.6673 43.6012C33.5641 43.572 32.471 43.3836 31.4217 43.0419L30.6093 44.2836Z" fill="white"/>
<path d="M46.0616 38.5062C46.1233 38.4988 46.1866 38.4992 46.2489 38.4951C47.4082 36.4556 47.9912 34.1393 47.9356 31.7941C47.8799 29.4488 47.1876 27.1628 45.9328 25.1807C44.678 23.1985 42.908 21.5949 40.812 20.5412C38.716 19.4876 36.3729 19.0236 34.0336 19.199C31.6942 19.3744 29.4465 20.1825 27.5311 21.5369C25.6156 22.8912 24.1044 24.7409 23.1592 26.888C22.214 29.0351 21.8703 31.3987 22.1649 33.7261C22.4595 36.0534 23.3813 38.2569 24.8318 40.1007L25.7426 38.9293C24.5194 37.2685 23.7655 35.3094 23.5597 33.2571C23.354 31.2048 23.7041 29.1349 24.5733 27.2645C25.4425 25.394 26.7988 23.7917 28.5001 22.6256C30.2013 21.4594 32.185 20.7724 34.243 20.6364C36.3011 20.5004 38.3579 20.9205 40.1978 21.8526C42.0378 22.7847 43.5931 24.1946 44.7009 25.9344C45.8086 27.6743 46.428 29.6801 46.4941 31.7416C46.5603 33.8031 46.0707 35.8444 45.0767 37.6517C45.4549 37.8734 45.7888 38.1631 46.0616 38.5062Z" fill="white"/>
<path d="M35.0001 12C31.0741 11.9974 27.2333 13.1439 23.9511 15.2981C20.669 17.4524 18.0891 20.5201 16.5297 24.1231C14.9702 27.726 14.4994 31.7066 15.1753 35.574C15.8511 39.4413 17.6441 43.0263 20.3331 45.8868L21.2302 44.7329C18.8611 42.1502 17.266 38.9532 16.6272 35.5071C15.9884 32.0611 16.3316 28.5048 17.6176 25.2445C18.9036 21.9841 21.0806 19.1512 23.9 17.0692C26.7193 14.9871 30.0673 13.7399 33.5617 13.47C37.056 13.2 40.5559 13.9182 43.6616 15.5426C46.7672 17.1669 49.3534 19.6319 51.1249 22.656C52.8964 25.6801 53.7817 29.1415 53.6798 32.6448C53.5778 36.1481 52.4927 39.5521 50.5483 42.4681C50.5539 42.6366 50.5473 42.8052 50.5288 42.9727C50.8458 43.2225 51.1179 43.5244 51.3335 43.8655C53.4975 40.8606 54.7899 37.3165 55.0683 33.6239C55.3466 29.9313 54.6001 26.2335 52.911 22.9381C51.2218 19.6428 48.6557 16.8777 45.4954 14.9477C42.335 13.0176 38.7032 11.9976 35.0001 12Z" fill="white"/>
<path d="M35 50.7998C32.3827 50.8013 29.7946 50.2497 27.4054 49.1812L26.6062 50.4027C29.2387 51.6135 32.1024 52.2393 35 52.2369C35.4271 52.2369 35.8498 52.2191 36.2703 52.1929C35.8856 51.7957 35.5975 51.3154 35.4282 50.789C35.2854 50.7922 35.1436 50.7998 35 50.7998Z" fill="white"/>
</svg>
