<svg width="44" height="44" viewBox="0 0 44 44" fill="none" xmlns="http://www.w3.org/2000/svg">
<path d="M6.84906 15.4124C6.67435 15.4124 6.5068 15.4818 6.38326 15.6053C6.25973 15.7288 6.19032 15.8964 6.19032 16.0711V19.3647H4.87286V16.0711C4.87286 15.8964 4.80346 15.7288 4.67992 15.6053C4.55639 15.4818 4.38884 15.4124 4.21413 15.4124C4.03942 15.4124 3.87187 15.4818 3.74834 15.6053C3.6248 15.7288 3.5554 15.8964 3.5554 16.0711V19.3647H2.23793V16.0711C2.23793 15.8964 2.16853 15.7288 2.045 15.6053C1.92146 15.4818 1.75391 15.4124 1.5792 15.4124C1.4045 15.4124 1.23695 15.4818 1.11341 15.6053C0.989873 15.7288 0.920471 15.8964 0.920471 16.0711L0.920471 21.3409C0.92097 21.7495 1.04785 22.148 1.28372 22.4816C1.51959 22.8152 1.8529 23.0677 2.23793 23.2045V38.468C2.25111 38.9879 2.46355 39.483 2.83134 39.8507C3.19913 40.2185 3.69416 40.431 4.21413 40.4442C4.7341 40.431 5.22913 40.2185 5.59692 39.8507C5.96471 39.483 6.17715 38.9879 6.19032 38.468V23.2045C6.57536 23.0677 6.90866 22.8152 7.14453 22.4816C7.3804 22.148 7.50729 21.7495 7.50779 21.3409V16.0711C7.50779 15.8964 7.43839 15.7288 7.31485 15.6053C7.19131 15.4818 7.02376 15.4124 6.84906 15.4124ZM6.19032 21.3409C6.19032 21.5156 6.12092 21.6832 5.99739 21.8067C5.87385 21.9303 5.7063 21.9997 5.53159 21.9997C5.35689 21.9997 5.18933 22.0691 5.0658 22.1926C4.94226 22.3161 4.87286 22.4837 4.87286 22.6584V38.468C4.86213 38.6391 4.78928 38.8005 4.66799 38.9218C4.5467 39.0431 4.38532 39.116 4.21413 39.1267C4.04294 39.116 3.88155 39.0431 3.76027 38.9218C3.63898 38.8005 3.56613 38.6391 3.5554 38.468V22.6584C3.5554 22.4837 3.486 22.3161 3.36246 22.1926C3.23892 22.0691 3.07137 21.9997 2.89667 21.9997C2.72196 21.9997 2.55441 21.9303 2.43087 21.8067C2.30734 21.6832 2.23793 21.5156 2.23793 21.3409V20.6822H6.19032V21.3409Z" fill="white"/>
<path d="M42.7954 15.5296C42.7079 15.4689 42.607 15.4303 42.5014 15.4171C42.3957 15.4039 42.2884 15.4165 42.1887 15.4538C41.9594 15.5441 36.492 17.7607 36.492 32.5394C36.492 32.7141 36.5614 32.8816 36.6849 33.0052C36.8084 33.1287 36.976 33.1981 37.1507 33.1981H39.7231L39.254 38.354C39.2339 38.6141 39.2689 38.8755 39.3565 39.1212C39.4441 39.3669 39.5825 39.5914 39.7626 39.7801C39.9385 39.9803 40.1535 40.1424 40.3943 40.2566C40.6351 40.3707 40.8967 40.4346 41.163 40.4441C41.6652 40.4251 42.1416 40.2171 42.4969 39.8617C42.8522 39.5064 43.0602 39.03 43.0793 38.5279V16.0711C43.0793 15.9646 43.0534 15.8597 43.004 15.7654C42.9545 15.6711 42.8829 15.5902 42.7954 15.5296ZM41.7618 38.5279C41.7462 38.6814 41.6781 38.8248 41.569 38.9339C41.4599 39.043 41.3165 39.1111 41.163 39.1267C40.9964 39.1043 40.844 39.0207 40.7355 38.8922C40.6808 38.8373 40.6376 38.772 40.6086 38.7002C40.5797 38.6283 40.5655 38.5513 40.5669 38.4739L41.1031 32.5993C41.1114 32.5079 41.1006 32.4157 41.0713 32.3288C41.0419 32.2418 40.9947 32.1619 40.9327 32.0943C40.8707 32.0266 40.7952 31.9726 40.7111 31.9358C40.627 31.8991 40.5362 31.8802 40.4444 31.8806H37.8134C37.9227 22.3725 40.3943 18.6744 41.7618 17.353V38.5279Z" fill="white"/>
<path d="M18.9908 7.68603L18.5 10.6951C18.4802 10.8171 18.4951 10.9421 18.543 11.056C18.5909 11.1699 18.6698 11.268 18.7708 11.3392C18.8718 11.4104 18.9907 11.4517 19.1141 11.4585C19.2374 11.4653 19.3602 11.4372 19.4684 11.3776L21.9999 9.97842L24.5314 11.3776C24.6287 11.4318 24.7382 11.4601 24.8496 11.4599C24.945 11.4599 25.0394 11.4392 25.126 11.3991C25.2127 11.359 25.2896 11.3006 25.3515 11.2278C25.4133 11.1551 25.4586 11.0698 25.4842 10.9778C25.5098 10.8858 25.5151 10.7894 25.4997 10.6951L25.009 7.68603L27.0827 5.56162C27.1673 5.47493 27.2263 5.3666 27.2533 5.24852C27.2804 5.13045 27.2743 5.00721 27.2358 4.89235C27.1974 4.7775 27.128 4.67547 27.0353 4.59749C26.9426 4.51951 26.8302 4.4686 26.7105 4.45034L23.872 4.01624L22.596 1.29897C22.5428 1.1858 22.4585 1.09011 22.353 1.02309C22.2474 0.956064 22.1249 0.920471 21.9999 0.920471C21.8748 0.920471 21.7524 0.956064 21.6468 1.02309C21.5412 1.09011 21.4569 1.1858 21.4037 1.29897L20.1278 4.01624L17.2893 4.45034C17.1696 4.4686 17.0572 4.51951 16.9645 4.59749C16.8718 4.67547 16.8024 4.7775 16.7639 4.89235C16.7255 5.00721 16.7194 5.13045 16.7464 5.24852C16.7735 5.3666 16.8325 5.47493 16.9171 5.56162L18.9908 7.68603ZM20.6745 5.26783C20.7814 5.25145 20.8827 5.20898 20.9693 5.14418C21.0559 5.07939 21.1253 4.99425 21.1712 4.8963L21.9999 3.12959L22.8286 4.89433C22.8745 4.99228 22.9438 5.07741 23.0304 5.14221C23.1171 5.207 23.2183 5.24947 23.3253 5.26585L25.2441 5.55899L23.8338 7.00424C23.7618 7.0781 23.7081 7.16784 23.6771 7.26624C23.6461 7.36464 23.6386 7.46894 23.6553 7.57075L23.9846 9.56869L22.3213 8.64646C22.2239 8.59272 22.1145 8.56453 22.0032 8.56453C21.8919 8.56453 21.7824 8.59272 21.685 8.64646L20.0217 9.56869L20.3478 7.57075C20.3645 7.46894 20.357 7.36464 20.326 7.26624C20.295 7.16784 20.2413 7.0781 20.1693 7.00424L18.7556 5.55899L20.6745 5.26783Z" fill="white"/>
<path d="M36.1409 10.6997C36.246 10.7659 36.3677 10.8011 36.492 10.8011C36.6162 10.8011 36.738 10.7659 36.8431 10.6997C37.2825 10.425 41.1031 7.94226 41.1031 5.41207C41.1183 4.79535 40.9002 4.19562 40.4924 3.73268C40.0847 3.26974 39.5173 2.97767 38.9036 2.91482C38.4495 2.86593 37.9904 2.93242 37.5689 3.10813C37.1473 3.28385 36.7769 3.56311 36.492 3.92005C36.2073 3.56287 35.8369 3.28344 35.4153 3.1077C34.9937 2.93197 34.5345 2.86562 34.0804 2.91482C33.4667 2.97767 32.8993 3.26974 32.4915 3.73268C32.0838 4.19562 31.8657 4.79535 31.8809 5.41207C31.8809 7.94226 35.7048 10.425 36.1409 10.6997ZM34.2371 4.22372C34.2885 4.21705 34.3402 4.21375 34.392 4.21384C34.7563 4.2304 35.1029 4.37566 35.3702 4.62377C35.6375 4.87189 35.8081 5.20677 35.8517 5.56885C35.8864 5.7125 35.9684 5.8403 36.0846 5.9317C36.2007 6.0231 36.3442 6.07279 36.492 6.07279C36.6398 6.07279 36.7833 6.0231 36.8994 5.9317C37.0155 5.8403 37.0975 5.7125 37.1323 5.56885C37.1738 5.17877 37.3656 4.82019 37.667 4.56909C37.9683 4.318 38.3557 4.19412 38.7468 4.22372C39.0401 4.24894 39.3121 4.38684 39.5058 4.60844C39.6996 4.83003 39.7999 5.11809 39.7856 5.41207C39.7856 6.66696 37.8925 8.39283 36.492 9.35392C35.0915 8.39283 33.1983 6.66696 33.1983 5.41207C33.1841 5.11809 33.2844 4.83003 33.4781 4.60844C33.6718 4.38684 33.9439 4.24894 34.2371 4.22372Z" fill="white"/>
<path d="M11.1091 16.6283C11.2142 16.6945 11.3359 16.7297 11.4602 16.7297C11.5844 16.7297 11.7061 16.6945 11.8113 16.6283C12.2506 16.3536 16.0713 13.8709 16.0713 11.3407C16.0864 10.724 15.8684 10.1242 15.4606 9.66128C15.0529 9.19834 14.4855 8.90627 13.8718 8.84342C13.4177 8.79428 12.9585 8.86065 12.5369 9.03639C12.1153 9.21212 11.7449 9.49152 11.4602 9.84864C11.1755 9.49138 10.8052 9.21188 10.3835 9.03613C9.96189 8.86038 9.50267 8.79409 9.04854 8.84342C8.43485 8.90627 7.86745 9.19834 7.45971 9.66128C7.05196 10.1242 6.83388 10.724 6.84904 11.3407C6.84904 13.8709 10.673 16.3536 11.1091 16.6283ZM9.20532 10.1523C9.25665 10.1457 9.30836 10.1424 9.36012 10.1424C9.72444 10.159 10.0711 10.3043 10.3384 10.5524C10.6057 10.8005 10.7763 11.1354 10.8199 11.4974C10.8546 11.6411 10.9366 11.7689 11.0527 11.8603C11.1689 11.9517 11.3124 12.0014 11.4602 12.0014C11.6079 12.0014 11.7514 11.9517 11.8676 11.8603C11.9837 11.7689 12.0657 11.6411 12.1004 11.4974C12.1421 11.1074 12.3339 10.749 12.6353 10.4979C12.9366 10.2468 13.3239 10.1229 13.715 10.1523C14.0082 10.1775 14.2803 10.3154 14.474 10.537C14.6677 10.7586 14.768 11.0467 14.7538 11.3407C14.7538 12.5923 12.8606 14.3214 11.4602 15.2825C10.0597 14.3214 8.1665 12.5956 8.1665 11.3407C8.15229 11.0467 8.25258 10.7586 8.4463 10.537C8.64001 10.3154 8.91207 10.1775 9.20532 10.1523Z" fill="white"/>
<path d="M21.9999 15.4124C19.2639 15.4124 16.5894 16.2237 14.3145 17.7437C12.0396 19.2637 10.2665 21.4242 9.21951 23.9519C8.1725 26.4796 7.89855 29.2611 8.43231 31.9445C8.96608 34.6279 10.2836 37.0928 12.2182 39.0274C14.1528 40.962 16.6177 42.2795 19.3011 42.8133C21.9845 43.347 24.766 43.0731 27.2937 42.0261C29.8214 40.9791 31.9819 39.206 33.5019 36.9311C35.0219 34.6562 35.8332 31.9817 35.8332 29.2457C35.8291 25.5782 34.3703 22.062 31.7769 19.4687C29.1836 16.8753 25.6674 15.4165 21.9999 15.4124ZM21.9999 41.7616C19.5245 41.7616 17.1046 41.0276 15.0464 39.6523C12.9882 38.277 11.384 36.3223 10.4367 34.0353C9.48939 31.7484 9.24153 29.2318 9.72446 26.804C10.2074 24.3761 11.3994 22.146 13.1498 20.3956C14.9002 18.6453 17.1303 17.4532 19.5581 16.9703C21.986 16.4874 24.5025 16.7352 26.7895 17.6825C29.0765 18.6298 31.0312 20.234 32.4065 22.2923C33.7817 24.3505 34.5158 26.7703 34.5158 29.2457C34.5121 32.564 33.1923 35.7454 30.8459 38.0918C28.4995 40.4381 25.3182 41.758 21.9999 41.7616Z" fill="white"/>
<path d="M28.6405 22.8125C28.5742 22.8682 28.5195 22.9364 28.4796 23.0132C28.4397 23.09 28.4153 23.174 28.4078 23.2602C28.4003 23.3465 28.41 23.4334 28.4361 23.516C28.4622 23.5985 28.5044 23.6751 28.5602 23.7413C29.9369 25.3851 30.6455 27.4862 30.5455 29.628C30.4455 31.7697 29.5441 33.7957 28.0202 35.304C26.4963 36.8123 24.4612 37.6927 22.3185 37.7707C20.1758 37.8486 18.0821 37.1184 16.4526 35.7248C14.8232 34.3313 13.777 32.3762 13.5216 30.2474C13.2662 28.1185 13.8202 25.9714 15.0738 24.232C16.3274 22.4926 18.189 21.2878 20.2893 20.8567C22.3897 20.4257 24.5753 20.7997 26.4127 21.9048C26.4868 21.9534 26.57 21.9867 26.6573 22.0024C26.7445 22.0182 26.8341 22.0161 26.9205 21.9965C27.007 21.9768 27.0886 21.9398 27.1604 21.8879C27.2323 21.8359 27.2929 21.77 27.3386 21.694C27.3844 21.618 27.4143 21.5336 27.4266 21.4458C27.439 21.358 27.4335 21.2686 27.4104 21.183C27.3874 21.0974 27.3473 21.0173 27.2926 20.9475C27.2378 20.8778 27.1696 20.8198 27.0919 20.777C24.9672 19.4995 22.44 19.0673 20.0116 19.5663C17.5832 20.0652 15.431 21.4588 13.9822 23.4705C12.5333 25.4822 11.8937 27.965 12.19 30.4264C12.4864 32.8877 13.6972 35.1477 15.5822 36.758C17.4672 38.3682 19.8886 39.2111 22.3661 39.1193C24.8435 39.0275 27.1959 38.0077 28.9565 36.2624C30.7172 34.517 31.7574 32.1736 31.8708 29.697C31.9842 27.2205 31.1625 24.7918 29.5687 22.8929C29.513 22.8266 29.4449 22.772 29.3681 22.7322C29.2913 22.6923 29.2075 22.6679 29.1213 22.6604C29.0351 22.653 28.9483 22.6626 28.8658 22.6887C28.7833 22.7148 28.7068 22.7568 28.6405 22.8125Z" fill="white"/>
<path d="M21.9999 35.1742C23.0571 35.1901 24.099 34.9197 25.0151 34.3917C25.9312 33.8637 26.6875 33.0978 27.2039 32.175C27.2428 32.0977 27.2661 32.0134 27.2725 31.9271C27.2788 31.8408 27.2681 31.754 27.241 31.6718C27.2138 31.5896 27.1707 31.5135 27.1142 31.448C27.0576 31.3824 26.9887 31.3286 26.9114 31.2897C26.834 31.2508 26.7498 31.2275 26.6635 31.2211C26.5771 31.2147 26.4903 31.2254 26.4081 31.2526C26.3259 31.2797 26.2499 31.3228 26.1843 31.3794C26.1188 31.4359 26.065 31.5048 26.026 31.5822C25.6083 32.2757 25.0184 32.8495 24.3136 33.2479C23.6087 33.6462 22.8128 33.8555 22.0032 33.8555C21.1935 33.8555 20.3977 33.6462 19.6928 33.2479C18.9879 32.8495 18.398 32.2757 17.9803 31.5822C17.9017 31.426 17.7642 31.3074 17.5982 31.2526C17.4322 31.1977 17.2511 31.2111 17.095 31.2897C16.9388 31.3683 16.8202 31.5058 16.7654 31.6718C16.7105 31.8378 16.7239 32.0188 16.8025 32.175C17.3183 33.0968 18.0735 33.8621 18.9884 34.39C19.9032 34.9179 20.9437 35.1889 21.9999 35.1742Z" fill="white"/>
<path d="M17.3888 27.9408C17.3882 27.8543 17.4048 27.7685 17.4374 27.6884C17.47 27.6083 17.5181 27.5353 17.5789 27.4738C17.7017 27.3495 17.8688 27.2791 18.0435 27.2781C18.2182 27.277 18.3862 27.3454 18.5105 27.4682C18.6348 27.591 18.7052 27.7582 18.7062 27.9329C18.7062 28.1076 18.7756 28.2751 18.8992 28.3987C19.0227 28.5222 19.1902 28.5916 19.3649 28.5916C19.5397 28.5916 19.7072 28.5222 19.8307 28.3987C19.9543 28.2751 20.0237 28.1076 20.0237 27.9329C20.0237 27.4087 19.8155 26.9061 19.4449 26.5355C19.0743 26.1649 18.5716 25.9567 18.0475 25.9567C17.5234 25.9567 17.0207 26.1649 16.6501 26.5355C16.2795 26.9061 16.0713 27.4087 16.0713 27.9329C16.0715 28.1056 16.1399 28.2713 16.2617 28.3938C16.3834 28.5163 16.5487 28.5858 16.7215 28.587H16.73C16.9023 28.586 17.0674 28.518 17.1903 28.3974C17.3133 28.2767 17.3845 28.113 17.3888 27.9408Z" fill="white"/>
<path d="M27.9285 27.9329C27.9285 27.4087 27.7203 26.9061 27.3496 26.5355C26.979 26.1649 26.4764 25.9567 25.9523 25.9567C25.4281 25.9567 24.9255 26.1649 24.5549 26.5355C24.1843 26.9061 23.9761 27.4087 23.9761 27.9329C23.9762 28.1056 24.0447 28.2713 24.1665 28.3938C24.2882 28.5163 24.4535 28.5858 24.6262 28.587H24.6348C24.8071 28.586 24.9722 28.518 25.0951 28.3974C25.2181 28.2767 25.2893 28.113 25.2935 27.9408C25.293 27.8543 25.3095 27.7685 25.3422 27.6884C25.3748 27.6083 25.4229 27.5353 25.4837 27.4738C25.6065 27.3495 25.7736 27.2791 25.9483 27.2781C26.123 27.277 26.291 27.3454 26.4153 27.4682C26.5395 27.591 26.61 27.7582 26.611 27.9329C26.611 28.1076 26.6804 28.2751 26.8039 28.3987C26.9275 28.5222 27.095 28.5916 27.2697 28.5916C27.4444 28.5916 27.612 28.5222 27.7355 28.3987C27.8591 28.2751 27.9285 28.1076 27.9285 27.9329Z" fill="white"/>
<path d="M30.4316 16.0579C30.475 16.067 30.5191 16.0714 30.5634 16.0711C30.7151 16.071 30.8622 16.0185 30.9797 15.9224C31.0972 15.8264 31.1779 15.6928 31.2083 15.5441L31.867 12.2504C31.8873 12.1644 31.8901 12.0751 31.8752 11.988C31.8603 11.9008 31.828 11.8176 31.7802 11.7432C31.7324 11.6688 31.6702 11.6048 31.5971 11.5549C31.5241 11.5051 31.4418 11.4705 31.3551 11.4532C31.2684 11.4358 31.1791 11.4361 31.0925 11.454C31.0059 11.4719 30.9238 11.5071 30.8511 11.5574C30.7784 11.6077 30.7166 11.6721 30.6693 11.7468C30.622 11.8215 30.5902 11.905 30.5759 11.9922L29.9172 15.2859C29.8838 15.4564 29.9191 15.6332 30.0154 15.7778C30.1118 15.9224 30.2614 16.0231 30.4316 16.0579Z" fill="white"/>
<path d="M35.5862 12.2629C35.5187 12.2089 35.4411 12.1686 35.358 12.1445C35.2749 12.1204 35.1879 12.1129 35.1019 12.1224C35.0158 12.132 34.9326 12.1584 34.8568 12.2001C34.7809 12.2419 34.7141 12.2981 34.6601 12.3657L32.0251 15.6594C31.9711 15.7269 31.9308 15.8045 31.9067 15.8876C31.8826 15.9707 31.8752 16.0577 31.8847 16.1437C31.8942 16.2297 31.9206 16.313 31.9624 16.3888C32.0041 16.4646 32.0603 16.5315 32.1279 16.5855C32.1955 16.6396 32.273 16.6798 32.3561 16.7039C32.4392 16.728 32.5263 16.7355 32.6123 16.726C32.6983 16.7164 32.7816 16.69 32.8574 16.6483C32.9332 16.6066 33 16.5503 33.0541 16.4828L35.689 13.1891C35.7431 13.1216 35.7833 13.044 35.8074 12.9609C35.8316 12.8778 35.8391 12.7907 35.8295 12.7047C35.82 12.6187 35.7936 12.5354 35.7518 12.4596C35.7101 12.3838 35.6538 12.317 35.5862 12.2629Z" fill="white"/>
<path d="M34.5158 18.0472C34.6177 18.0472 34.7183 18.0236 34.8096 17.9781L37.4445 16.6606C37.5219 16.622 37.591 16.5684 37.6477 16.5031C37.7044 16.4377 37.7477 16.3618 37.7751 16.2797C37.8025 16.1976 37.8135 16.111 37.8074 16.0246C37.8013 15.9383 37.7783 15.854 37.7396 15.7766C37.7009 15.6992 37.6474 15.6301 37.5821 15.5734C37.5167 15.5167 37.4408 15.4734 37.3587 15.446C37.1929 15.3906 37.012 15.4034 36.8556 15.4815L34.2207 16.799C34.0877 16.8652 33.981 16.9745 33.918 17.109C33.855 17.2436 33.8393 17.3955 33.8734 17.5401C33.9076 17.6847 33.9897 17.8134 34.1063 17.9055C34.2229 17.9976 34.3672 18.0475 34.5158 18.0472Z" fill="white"/>
</svg>
