<svg width="134" height="102" viewBox="0 0 134 102" fill="none" xmlns="http://www.w3.org/2000/svg">
<g id="Logo">
<path id="Vector" fill-rule="evenodd" clip-rule="evenodd" d="M37.1242 51.8052C35.814 53.0327 34.6086 53.6334 33.4622 53.6334C32.9168 53.5952 32.3768 53.5011 31.8507 53.3526C31.0449 53.1633 30.344 52.3406 29.7151 50.9237C29.3895 50.1939 29.2199 49.4045 29.2172 48.6058C29.2318 47.7891 29.3778 46.98 29.6496 46.2095C29.8586 45.6803 30.1721 45.1984 30.5716 44.7923C30.9711 44.3863 31.4484 44.0644 31.9751 43.8459C32.5604 43.593 33.1913 43.4619 33.8291 43.4606C34.3252 43.4648 34.8178 43.5441 35.29 43.6957C35.9767 43.909 36.5794 44.3307 37.0139 44.9019C37.4485 45.4732 37.6931 46.1654 37.7138 46.882C37.7183 47.2802 37.6336 47.6744 37.4659 48.0359C37.2982 48.3974 37.0516 48.717 36.7443 48.9714C36.6679 49.038 36.6209 49.1318 36.6133 49.2326C36.6161 49.3084 36.642 49.3815 36.6877 49.4422C36.7333 49.5029 36.7965 49.5482 36.8687 49.5721C36.9046 49.5857 36.9442 49.5857 36.9801 49.5721C37.0681 49.5594 37.1502 49.5207 37.2159 49.4611L39.738 46.9865L40.3407 46.4315C41.1585 45.7469 41.883 44.9589 42.496 44.0874C42.8782 43.5517 43.0822 42.91 43.0791 42.2527C43.0719 41.8747 43.0146 41.4993 42.9088 41.1362C42.635 40.4274 42.1579 39.8147 41.5369 39.3746C40.9159 38.9345 40.1786 38.6865 39.417 38.6615C39.096 38.6615 38.762 38.6158 38.4214 38.6158C37.2015 38.6168 35.9918 38.838 34.851 39.2688C32.0151 40.5907 29.5242 42.5482 27.5729 44.9885C26.1876 46.4723 25.1179 48.2203 24.4284 50.1271C24.1068 51.0034 23.9449 51.9299 23.9502 52.8629C23.9618 53.9482 24.159 55.0235 24.5332 56.0427C25.4373 58.2562 26.6034 59.3988 27.9987 59.4707H28.156C29.5055 59.4707 30.9794 58.759 32.5451 57.3551C33.6915 56.2974 34.8314 55.207 35.932 54.0447C36.253 53.7183 36.587 53.3918 36.8753 53.0719V53.209C36.8933 54.2823 37.0699 55.3472 37.3994 56.3692C37.6798 57.4151 38.2824 58.3468 39.1223 59.0332C39.5056 59.3058 39.9618 59.4581 40.4325 59.4707C41.0876 59.4707 42.2471 58.9679 43.3607 57.8318C44.6709 56.5259 46.0205 55.1874 47.3307 53.8489C48.0382 53.1437 48.7326 52.4516 49.4401 51.7595C49.5205 51.6796 49.5674 51.5722 49.571 51.4591C49.5638 51.3468 49.5175 51.2406 49.4401 51.1588C49.3614 51.092 49.2616 51.055 49.1583 51.0543C49.0494 51.0571 48.9441 51.0936 48.857 51.1588L48.274 51.7399L46.8131 53.2286C46.6491 53.4674 46.4319 53.6651 46.1784 53.8062C45.9249 53.9473 45.642 54.028 45.352 54.0419C45.062 54.0558 44.7728 54.0026 44.5068 53.8864C44.2409 53.7702 44.0056 53.5942 43.8194 53.3722C43.1303 52.5981 42.676 51.6448 42.5092 50.6234C42.3616 49.9014 42.2891 49.1662 42.2929 48.4295C42.2929 48.1291 42.293 47.8223 42.3388 47.5219C42.3444 47.4521 42.3285 47.3823 42.2934 47.3217C42.2583 47.2611 42.2056 47.2125 42.1423 47.1824C42.0895 47.1551 42.0314 47.1395 41.9719 47.1367C41.8836 47.1482 41.8011 47.187 41.7361 47.2477L37.1504 51.8182L37.1242 51.8052ZM53.1217 44.4009C56.8034 40.5551 59.8561 38.6485 62.2407 38.6485C62.3495 38.6358 62.4594 38.6358 62.5682 38.6485C64.9921 38.8378 66.2433 39.6736 66.3481 41.1558C66.4529 42.6379 66.525 43.4737 66.525 43.6696C66.525 46.3074 65.2323 49.3392 62.6468 52.765C61.3745 54.3551 59.9189 55.7906 58.3101 57.0417C57.0792 58.05 55.68 58.8346 54.1764 59.3597C53.7109 59.5117 53.2251 59.5932 52.7352 59.6013C51.7831 59.5887 50.8618 59.2627 50.1148 58.6741C49.1297 57.8177 48.4665 56.6524 48.2347 55.3702C47.9838 54.0682 47.8544 52.7458 47.8481 51.4199C47.837 51.3683 47.837 51.3149 47.8481 51.2632C47.8088 49.7027 47.7826 47.7896 47.7826 45.55V42.0568C47.7826 40.2743 47.7827 38.4265 47.8285 36.5199C47.8285 32.8896 47.7368 30.8916 47.5468 30.5651C47.3568 30.2386 47.18 30.0558 47.0097 30.0558C46.5577 30.0558 45.7584 30.5912 44.6382 31.6424C44.5733 31.6839 44.4989 31.7086 44.422 31.7143C44.3792 31.7266 44.3338 31.7266 44.291 31.7143C44.227 31.6814 44.1732 31.6318 44.1351 31.5709C44.0971 31.51 44.0762 31.44 44.0748 31.3682C44.0766 31.3236 44.0874 31.2798 44.1065 31.2394C44.1257 31.199 44.1527 31.1629 44.1862 31.1332C44.3565 30.9634 44.553 30.7675 44.743 30.5586C45.7081 29.5403 46.7318 28.5789 47.8089 27.6791C48.9881 26.6736 49.8593 26.1708 50.3507 26.1512C50.842 26.1316 51.1433 26.1055 51.1695 26.1055C52.1194 26.1055 52.7417 27.0523 53.0234 28.9654C53.1139 29.7502 53.1642 30.5391 53.1741 31.329C53.1741 32.2301 53.1741 32.9614 53.1741 33.5164C53.1741 34.0714 53.1741 34.6133 53.1741 35.1487C53.1741 36.3697 53.1741 37.8976 53.1741 39.765C53.1741 41.6324 53.1741 43.1733 53.1741 44.4009H53.1217ZM53.1217 45.7067V50.0684C53.1217 52.7911 53.5082 54.3843 54.3009 54.8805C54.8459 55.2729 55.4812 55.5222 56.1483 55.6053C57.1178 55.6053 58.2183 55.0046 59.4827 53.8227C60.5672 52.74 61.1853 51.2783 61.2056 49.7484V49.5721C61.2 48.1496 60.7156 46.77 59.8299 45.6545C59.4816 45.1699 59.0238 44.7738 58.4935 44.4982C57.9632 44.2225 57.3752 44.0751 56.7771 44.0679C56.6264 44.0679 56.4955 44.0679 56.3448 44.0679C55.158 44.3449 54.0536 44.8975 53.1217 45.6806V45.7067ZM73.9276 44.4009C73.9276 43.1733 73.9276 41.6324 73.9276 39.765C73.9276 37.8976 73.9276 36.3697 73.9276 35.1487C73.9276 34.6133 73.9276 34.0779 73.9276 33.5164C73.9276 32.9548 73.9276 32.2105 73.9276 31.329C73.9177 30.5391 73.8674 29.7502 73.7769 28.9654C73.4953 27.0523 72.8663 26.1055 71.923 26.1055C71.923 26.1055 71.6216 26.1055 71.1041 26.1512C70.5866 26.1969 69.7415 26.6736 68.5623 27.6791C67.4852 28.5789 66.4616 29.5403 65.4965 30.5586C65.3065 30.7675 65.11 30.9634 64.9397 31.1332C64.9063 31.1629 64.8792 31.199 64.86 31.2394C64.8409 31.2798 64.8301 31.3236 64.8283 31.3682C64.8297 31.44 64.8505 31.51 64.8886 31.5709C64.9266 31.6318 64.9805 31.6814 65.0444 31.7143C65.0872 31.7266 65.1327 31.7266 65.1755 31.7143C65.2524 31.7086 65.3267 31.6839 65.3917 31.6424C66.5119 30.5912 67.3111 30.0558 67.7631 30.0558C67.9334 30.0558 68.1038 30.2321 68.3003 30.5651C68.4969 30.8981 68.582 32.8896 68.582 36.5199C68.582 38.4265 68.5362 40.2743 68.5362 42.0568V45.55C68.5362 47.7896 68.5362 49.7027 68.6017 51.2632C68.5905 51.3149 68.5905 51.3683 68.6017 51.4199C68.6079 52.7458 68.7372 54.0682 68.9881 55.3702C69.2202 56.6509 69.8806 57.8154 70.8617 58.6741C71.6094 59.2614 72.5302 59.5872 73.4821 59.6013C73.9719 59.5932 74.4578 59.5117 74.9234 59.3597C76.427 58.8346 77.8261 58.05 79.057 57.0417C80.6658 55.7906 82.1214 54.3551 83.3937 52.765C85.9748 49.3392 87.2676 46.3074 87.2719 43.6696C87.2719 43.4737 87.2064 42.6379 87.095 41.1558C86.9837 39.6736 85.739 38.8378 83.3151 38.6485C83.2063 38.6358 83.0964 38.6358 82.9876 38.6485C80.603 38.6485 77.5503 40.5551 73.8687 44.4009H73.9276ZM73.9276 45.7067C74.8595 44.9236 75.9639 44.371 77.1507 44.094C77.3014 44.094 77.4324 44.094 77.583 44.094C78.1811 44.1013 78.7691 44.2487 79.2994 44.5243C79.8297 44.7999 80.2875 45.196 80.6358 45.6806C81.5215 46.7961 82.0059 48.1757 82.0115 49.5982V49.7745C81.9912 51.3044 81.3731 52.7661 80.2886 53.8489C79.0242 55.0307 77.9237 55.6314 76.9542 55.6314C76.2871 55.5483 75.6518 55.299 75.1068 54.9066C74.3141 54.4104 73.9276 52.8172 73.9276 50.0945V45.7329V45.7067ZM100.741 51.8509C99.4305 53.0784 98.2252 53.6791 97.0787 53.6791C96.5334 53.6399 95.9935 53.5459 95.4672 53.3983C94.668 53.209 93.9605 52.3863 93.3382 50.9694C93.0073 50.2411 92.8354 49.451 92.8337 48.6515C92.8506 47.8345 92.9988 47.0254 93.2727 46.2552C93.4815 45.727 93.7943 45.2458 94.1925 44.8398C94.5908 44.4339 95.0665 44.1115 95.5916 43.8916C96.1772 43.6399 96.8079 43.5089 97.4456 43.5063C97.9439 43.51 98.4387 43.5892 98.913 43.7414C99.5107 43.9514 100.044 44.3118 100.46 44.7877C100.877 45.2637 101.163 45.8389 101.291 46.4576C101.314 46.6133 101.327 46.7703 101.33 46.9277C101.331 47.3216 101.245 47.7109 101.077 48.0676C100.91 48.4243 100.665 48.7396 100.361 48.991C100.284 49.0576 100.237 49.1514 100.23 49.2522C100.233 49.328 100.258 49.4011 100.304 49.4618C100.35 49.5225 100.413 49.5678 100.485 49.5917C100.521 49.6059 100.561 49.6059 100.597 49.5917C100.684 49.5776 100.766 49.5391 100.832 49.4807L103.355 47.0061L103.957 46.4511C104.775 45.7666 105.5 44.9785 106.113 44.107C106.495 43.5713 106.699 42.9296 106.696 42.2723C106.688 41.8942 106.631 41.5188 106.525 41.1558C106.251 40.4475 105.773 39.8353 105.153 39.3953C104.532 38.9553 103.795 38.7069 103.034 38.6811C102.706 38.6811 102.379 38.6354 102.038 38.6354C100.816 38.6371 99.6042 38.8582 98.461 39.2884C95.623 40.6159 93.1319 42.5803 91.1829 45.0277C89.7952 46.5109 88.7233 48.2589 88.0319 50.1663C87.714 51.0436 87.5522 51.9694 87.5537 52.9021C87.5676 53.9877 87.7669 55.0631 88.1432 56.0819C89.0472 58.2954 90.2133 59.438 91.6087 59.5099H91.7659C93.1154 59.5099 94.5893 58.7981 96.155 57.3943C97.3014 56.3366 98.4413 55.2461 99.5353 54.0839C99.8629 53.7575 100.19 53.431 100.485 53.111V53.2482C100.503 54.3215 100.68 55.3864 101.009 56.4084C101.287 57.4553 101.89 58.3878 102.732 59.0724C103.116 59.3449 103.572 59.4973 104.042 59.5099C104.698 59.5099 105.85 59.0071 106.971 57.871C108.281 56.5651 109.591 55.2266 110.901 53.888L113.017 51.7986C113.098 51.7188 113.145 51.6114 113.148 51.4983C113.141 51.386 113.095 51.2798 113.017 51.1979C112.939 51.1312 112.839 51.0942 112.736 51.0935C112.627 51.0953 112.521 51.132 112.434 51.1979L111.851 51.779L110.39 53.2677C110.203 53.5047 109.969 53.6999 109.701 53.8405C109.434 53.9811 109.14 54.0641 108.838 54.0839C108.291 54.059 107.775 53.8252 107.397 53.431C106.707 52.6568 106.253 51.7036 106.086 50.6821C105.939 49.9602 105.866 49.225 105.87 48.4883C105.87 48.1879 105.87 47.881 105.916 47.5807C105.922 47.5109 105.906 47.4411 105.871 47.3805C105.836 47.3199 105.783 47.2713 105.72 47.2411C105.666 47.2147 105.608 47.1992 105.549 47.1954C105.461 47.2069 105.378 47.2458 105.313 47.3064L100.728 51.877L100.741 51.8509ZM116.011 34.3521V45.3672L116.116 45.2693C116.771 44.7273 117.426 44.1462 118.081 43.5194C119.514 42.1539 121.047 40.8968 122.667 39.7585C123.473 39.1819 124.418 38.8282 125.405 38.7334C125.66 38.7291 125.912 38.7863 126.14 38.9C126.369 39.0136 126.566 39.1805 126.715 39.3863C127.467 40.3439 127.842 41.8109 127.842 43.7871L127.685 51.1131C127.691 51.6184 127.734 52.1226 127.816 52.6213C127.986 53.7183 128.53 54.319 129.283 54.319C129.444 54.3154 129.603 54.3002 129.762 54.2733C130.46 54.0012 131.075 53.5509 131.543 52.9674C131.652 52.8393 131.768 52.7173 131.891 52.6018C132.297 52.2165 132.683 51.8313 133.076 51.4265L133.293 51.211C133.325 51.1698 133.367 51.1366 133.415 51.114C133.463 51.0914 133.515 51.0799 133.568 51.0804C133.611 51.0704 133.656 51.0704 133.699 51.0804C133.786 51.109 133.862 51.1641 133.916 51.2379C133.97 51.3116 133.999 51.4004 134 51.4918C133.99 51.5975 133.944 51.6967 133.869 51.7725C131.694 53.9403 129.539 56.108 127.364 58.3019C126.653 59.0884 125.665 59.5723 124.606 59.6535H124.37C123.394 59.5686 122.772 58.7524 122.47 57.1854C122.395 56.4697 122.365 55.7501 122.379 55.0307V54.43L122.451 50.6299C122.451 49.7419 122.49 49.0171 122.516 48.4556C122.516 45.6023 122.215 44.1332 121.632 44.1136L120.702 44.0744C119.588 44.0744 118.022 44.982 115.972 46.7841V52.8629C115.972 57.2637 115.435 57.7404 113.129 59.9147C112.814 60.1824 112.474 60.5284 112.074 60.8941L109.663 63.2446C109.633 63.2771 109.597 63.3031 109.556 63.321C109.515 63.339 109.472 63.3485 109.427 63.3491C109.391 63.3565 109.353 63.3565 109.316 63.3491C109.24 63.3296 109.173 63.2845 109.126 63.2215C109.08 63.1584 109.057 63.0813 109.06 63.0031C109.075 62.9158 109.113 62.8344 109.172 62.768C109.729 62.2652 110.145 61.6259 110.377 60.9137C110.534 60.2618 110.607 59.5925 110.593 58.9222V57.0483C110.593 55.6706 110.593 54.2798 110.548 52.8825V34.3521C110.548 29.9448 111.045 29.4877 113.391 27.32C113.712 27.0196 114.046 26.6997 114.426 26.3275C115.238 25.5375 116.031 24.7409 116.836 23.9443C116.902 23.8853 116.985 23.8486 117.072 23.8398C117.112 23.8398 117.157 23.8398 117.171 23.8398C117.25 23.8618 117.32 23.9098 117.369 23.9762C117.417 24.0425 117.442 24.1233 117.439 24.2055C117.428 24.2935 117.389 24.3757 117.328 24.4405C116.774 24.9433 116.359 25.5796 116.122 26.2884C115.965 26.9446 115.892 27.6182 115.906 28.2929V28.7826C115.946 30.6304 115.972 32.4782 116.011 34.3521Z" fill="#F48220"/>
<path id="Vector_2" fill-rule="evenodd" clip-rule="evenodd" d="M83.1257 31.8119C83.527 31.7343 83.9181 31.6117 84.2917 31.4462C84.2917 31.4462 87.3642 37.5186 95.6577 35.7034C100.342 34.6848 104.829 30.9239 104.777 25.9093C104.777 24.8254 104.37 24.4598 104.777 24.2835C107.207 23.2715 107.155 21.1886 105.294 21.7566C105.641 21.7566 106.113 21.6456 106.355 21.9656C106.598 22.2855 106.316 22.6707 106.087 22.8274C106.932 21.4236 104.174 21.9133 103.696 22.3965C104.129 22.192 104.621 22.148 105.084 22.2724C106.015 22.5793 104.593 23.8526 104.429 23.8069C104.266 23.7611 104.344 23.5849 104.18 23.4216C102.53 26.7647 89.7683 30.6692 84.5275 30.0489C84.3146 29.983 84.0948 29.9413 83.8724 29.9249C83.7742 30.1599 84.1738 30.7868 84.1083 30.9304C83.9642 31.2569 80.9376 31.0479 83.6497 29.4548C83.0601 28.9716 78.9986 32.2885 83.1257 31.8119Z" fill="#F48220"/>
<path id="Vector_3" fill-rule="evenodd" clip-rule="evenodd" d="M97.0725 25.8837C96.5484 26.0012 95.2906 25.7466 95.4282 27.0263C95.474 27.405 95.7689 27.294 96.0375 27.2679C96.5527 27.316 97.0677 27.1743 97.4852 26.8696C97.6686 26.6672 97.97 25.6813 97.0725 25.8837Z" fill="#F48220"/>
<path id="Vector_4" fill-rule="evenodd" clip-rule="evenodd" d="M98.6049 25.8184C98.6442 26.0077 98.749 25.9294 98.9194 26.0012L99.2731 26.1318C99.549 26.2392 99.8554 26.2392 100.131 26.1318C100.374 26.0926 101.441 25.6551 101.396 25.4005C101.396 25.2699 101.166 25.2699 101.075 25.2307C101.011 25.2065 100.945 25.1889 100.878 25.1785C100.734 25.1785 100.596 25.0022 100.308 24.9957C100.02 24.9891 100.072 25.0414 99.8823 25.0806C99.4049 25.2245 98.9676 25.477 98.6049 25.8184Z" fill="#F48220"/>
<path id="Vector_5" fill-rule="evenodd" clip-rule="evenodd" d="M86.8593 29.2598C87.0424 29.3521 87.2331 29.4286 87.4293 29.4883C87.6433 29.5496 87.8703 29.5496 88.0844 29.4883C88.2833 29.4397 88.4734 29.3604 88.6478 29.2533C88.877 29.1161 88.9557 29.1357 89.0801 28.8811C89.0041 28.8202 88.9175 28.7737 88.8246 28.744C88.2547 28.6068 88.2089 28.3587 87.2786 28.8746C87.1869 28.9464 86.8528 29.0704 86.8593 29.2598Z" fill="#F48220"/>
<path id="Vector_6" fill-rule="evenodd" clip-rule="evenodd" d="M100.544 24.6496C100.689 24.7084 100.8 24.5908 100.924 24.5059C101.049 24.4211 101.2 24.5059 101.35 24.5843C101.419 24.63 101.5 24.6545 101.583 24.6545C101.666 24.6545 101.746 24.63 101.815 24.5843C101.953 24.4668 101.94 23.742 101.527 23.8204C101.487 23.8305 101.447 23.8436 101.409 23.8595H101.285C101.088 23.9444 100.44 24.2774 100.544 24.6496Z" fill="#F48220"/>
<path id="Vector_7" fill-rule="evenodd" clip-rule="evenodd" d="M93.3973 27.3527C93.1101 27.4378 92.8548 27.6059 92.6636 27.8358C92.5915 27.9599 92.5588 28.2472 92.7947 28.1166C92.9191 28.0448 93.0567 27.8946 93.2008 27.9207C93.3449 27.9468 93.5152 28.2276 93.81 28.1166C93.9083 28.084 93.9541 28.0774 93.9738 27.9599C93.9839 27.7871 93.9594 27.6139 93.9017 27.4506C93.8362 27.3461 93.8297 27.3396 93.7117 27.3331C93.6066 27.3194 93.4999 27.3261 93.3973 27.3527Z" fill="#F48220"/>
<path id="Vector_8" fill-rule="evenodd" clip-rule="evenodd" d="M33.0304 19.5896C31.2354 19.8442 31.5171 20.3796 30.6458 19.8115C30.303 19.6176 29.9461 19.4496 29.5781 19.3088C29.1475 19.2121 28.6961 19.2871 28.3203 19.5177C27.8159 20.0205 28.7264 20.014 28.9754 20.1184C29.1512 20.2041 29.3031 20.3318 29.4174 20.4901C29.5317 20.6485 29.6049 20.8326 29.6305 21.026C29.7621 21.3735 29.9454 21.6992 30.1742 21.9924C30.3222 22.1488 30.5067 22.2665 30.7112 22.3348C30.9158 22.4032 31.1341 22.4201 31.3468 22.3841C33.168 22.3841 32.5457 22.3841 32.9191 21.7312C33.5283 20.6408 33.9083 20.1511 36.5287 19.8377C36.568 19.6222 36.3845 19.4851 36.2207 19.4067C35.5656 19.0803 33.8558 19.4524 33.0304 19.5896Z" fill="#007A4D"/>
<path id="Vector_9" fill-rule="evenodd" clip-rule="evenodd" d="M23.3806 34.5217C31.982 34.0451 34.5173 29.1937 32.7354 22.5664C32.4668 22.5664 30.5277 23.0561 30.5408 23.2912C32.2834 25.3283 29.2765 32.9351 22.2407 27.9466C23.2758 29.4549 23.4789 32.8959 23.3806 34.5217Z" fill="#007A4D"/>
<path id="Vector_10" fill-rule="evenodd" clip-rule="evenodd" d="M37.0983 14.1113L37.1638 17.7286C37.1674 17.9914 37.0669 18.2449 36.8842 18.4343C36.7015 18.6238 36.4513 18.7338 36.1877 18.7407L28.7654 18.8713C28.5007 18.8748 28.2454 18.7737 28.0552 18.5902C27.8649 18.4067 27.7553 18.1557 27.7501 17.8918L27.6846 14.2811L37.0983 14.1113ZM27.4749 3.76228L27.927 3.69698L27.6911 2.02546C27.6679 1.86865 27.6762 1.7088 27.7155 1.55522C27.7549 1.40165 27.8246 1.25743 27.9204 1.13094C28.1142 0.875292 28.4014 0.706316 28.7196 0.66082L32.5519 0.118871C32.7097 0.0970076 32.8702 0.106521 33.0243 0.146867C33.1783 0.187213 33.3228 0.257601 33.4494 0.353939C33.7059 0.547061 33.8754 0.83338 33.9211 1.15052L34.157 2.82856L34.8121 2.73062C34.942 2.71221 35.0743 2.71961 35.2014 2.75236C35.3285 2.78511 35.4478 2.84257 35.5526 2.92146C35.6573 3.00034 35.7453 3.09909 35.8116 3.21202C35.8779 3.32494 35.9211 3.44982 35.9388 3.57945L36.4564 7.20979L27.1343 8.51566L26.6168 4.87879C26.5811 4.61845 26.6498 4.35459 26.808 4.14438C26.9662 3.93417 27.2011 3.79455 27.4618 3.75574L27.4749 3.76228ZM33.0629 2.97221L32.814 1.30722C32.8118 1.29359 32.8065 1.28063 32.7985 1.26932C32.7906 1.25801 32.7802 1.24865 32.7682 1.24192C32.7425 1.2343 32.7152 1.2343 32.6895 1.24192L28.8637 1.78387C28.8366 1.79034 28.8118 1.80386 28.7917 1.82305C28.7858 1.84884 28.7858 1.87561 28.7917 1.9014L29.0275 3.57292L33.0695 3.00487L33.0629 2.97221ZM36.5414 8.06514L27.1736 9.05759L27.678 13.7261L37.0393 12.7271L36.5414 8.06514Z" fill="#007A4D"/>
<path id="Vector_11" fill-rule="evenodd" clip-rule="evenodd" d="M18.9454 26.2107H23.5311V24.1996C22.9742 25.1333 20.1835 25.1268 19.9411 23.3116C20.2294 24.2845 21.4806 24.1278 21.9654 23.5858C22.3191 23.1941 23.2756 22.7958 23.5442 23.4879H24.7889L23.4787 19.8445C21.2938 19.7972 19.1107 20.0032 16.9735 20.4583C16.4092 20.9246 15.9846 21.537 15.7466 22.2281C15.5085 22.9192 15.4661 23.6623 15.6241 24.3759C15.873 25.7471 17.6024 26.2107 18.9454 26.2107Z" fill="#007A4D"/>
<path id="Vector_12" fill-rule="evenodd" clip-rule="evenodd" d="M17.5367 56.8068C18.6231 59.1866 19.0398 61.8159 18.7421 64.4135C21.3625 64.1654 23.6095 63.8324 26.2037 63.3884C27.1339 60.9269 22.4106 60.6265 22.4237 60.5482C22.7888 57.9794 22.7335 55.3685 22.26 52.8174C21.9371 53.2094 21.5916 53.5822 21.2249 53.9339C20.1326 54.9304 18.9677 55.8448 17.7398 56.6697L17.5367 56.8068Z" fill="#007A4D"/>
<path id="Vector_13" fill-rule="evenodd" clip-rule="evenodd" d="M13.0036 58.844C15.5689 57.2465 17.8992 55.3018 19.9279 53.0654C22.5941 49.9118 23.8978 45.0931 23.8978 40.529C23.9066 37.349 23.1471 34.2137 21.6836 31.3879C19.2401 26.5692 8.35893 25.5637 5.08345 28.5999C2.391 31.1071 2.97398 36.3437 4.13351 38.864L6.43946 38.1001C6.37395 37.3688 5.49613 34.0715 7.35006 32.5044C9.31535 30.8264 14.3072 32.7525 15.6763 35.0509C17.0455 37.3492 17.3665 40.6466 17.3665 42.958C17.3665 43.7676 17.2617 45.1845 17.0651 47.189C16.7638 50.2643 14.34 56.9831 9.977 55.0243C7.29111 53.7576 7.52039 49.1478 7.9331 46.301L3.66841 47.0062C3.66841 50.976 2.62683 52.6672 2.62683 56.637C2.67924 61.0835 8.57509 61.9781 13.0036 58.844Z" fill="#F48220"/>
<path id="Vector_14" fill-rule="evenodd" clip-rule="evenodd" d="M7.80252 47.3718C8.16283 43.9047 8.71966 44.6622 3.21684 43.2061C1.80838 42.8339 -0.366513 41.3452 0.0527494 43.957C0.530971 46.9148 3.88505 46.634 3.63611 48.0313L7.80252 47.3718Z" fill="#F48220"/>
<path id="Vector_15" fill-rule="evenodd" clip-rule="evenodd" d="M6.9048 38.5244C6.12776 38.7906 5.39313 39.1666 4.72335 39.6409C4.15342 40.0261 4.60543 40.5485 4.80196 40.999C4.95954 41.4631 5.29033 41.8489 5.72567 42.0764C5.97132 42.1623 6.23223 42.1962 6.49176 42.176C6.7513 42.1558 7.00378 42.0819 7.23307 41.959C7.46235 41.8361 7.66342 41.667 7.82347 41.4624C7.98352 41.2577 8.09901 41.0221 8.16261 40.7705C8.26743 40.1176 8.7719 40.1176 8.4509 39.3471C8.1299 38.5766 7.69747 38.2959 6.9048 38.5244Z" fill="#007A4D"/>
<path id="Vector_16" fill-rule="evenodd" clip-rule="evenodd" d="M17.9299 15.6718C16.1152 16.0962 13.187 16.9777 13.0232 19.8506C13.0232 20.053 13.1083 20.7386 13.2983 20.8431C13.5472 20.3207 15.827 18.1464 17.3468 17.8787C15.6043 18.7863 12.6825 21.0585 14.3989 23.8335C14.5991 24.1422 14.8998 24.3728 15.2505 24.4865C14.2482 19.5176 20.6747 18.4207 22.1355 16.8732C24.2253 14.6597 21.8081 13.1188 16.9603 14.3268C15.3226 14.7316 12.7218 15.6718 12.9576 17.6828C13.9992 16.8471 15.8925 15.5477 17.9299 15.6718Z" fill="#007A4D"/>
<path id="Vector_17" fill-rule="evenodd" clip-rule="evenodd" d="M17.0389 20.3796C18.2883 19.9644 19.5733 19.665 20.8778 19.485C20.6878 19.3414 20.5044 19.2108 20.3602 19.0868C20.1824 18.9512 20.0351 18.7799 19.9279 18.584C18.8925 19.0582 17.9218 19.6616 17.0389 20.3796Z" fill="#007A4D"/>
<path id="Vector_18" fill-rule="evenodd" clip-rule="evenodd" d="M20.2555 18.4141C20.2555 18.5969 20.7665 18.9756 21.3692 19.387L23.4131 19.3413C25.2212 19.3413 25.1688 14.6728 23.1642 14.6009C22.8039 14.6009 23.0659 14.5552 23.0266 15.5151C22.9915 16.0234 22.8229 16.5136 22.5378 16.9364C22.2526 17.3593 21.8609 17.7 21.4019 17.9244C21.1322 18.0758 20.8495 18.2025 20.5569 18.3031L20.2555 18.4141Z" fill="#007A4D"/>
<path id="Vector_19" fill-rule="evenodd" clip-rule="evenodd" d="M98.92 22.4686C99.0968 22.3314 99.4047 20.9211 99.9288 20.007C101.593 17.121 102.982 16.4681 106.48 17.4475C108.026 17.8849 109.814 18.7533 111.432 18.6619C112.075 18.6731 112.712 18.5336 113.291 18.2546C113.871 17.9756 114.376 17.565 114.767 17.0557C114.95 16.8076 115.363 16.0371 115.271 15.7825C114.885 15.6715 114.852 16.8207 113.024 17.1667C110.404 17.6629 108.353 15.6062 104.973 15.0708C101.868 14.5811 99.5685 16.9773 98.8545 19.9678C98.7497 20.4053 98.5072 22.2662 98.92 22.4686ZM97.7211 10.0627C98.0093 10.0627 97.9307 9.97786 98.1666 9.75586L99.4768 8.78299C100.882 7.89672 102.483 7.36759 104.141 7.24204C104.481 7.25607 104.821 7.22088 105.15 7.13757C104.96 6.71316 103.565 6.56953 103.119 6.57605C101.698 6.59548 100.324 7.0924 99.2213 7.9864C98.5647 8.55602 98.0453 9.26569 97.7015 10.0627H97.7211ZM112.395 4.2777C112.657 3.62476 114.072 3.45501 114.701 3.51377C115.379 3.54145 116.043 3.71653 116.647 4.02677C117.25 4.33701 117.778 4.77491 118.193 5.30981C118.609 5.84471 118.902 6.46369 119.053 7.1234C119.203 7.78312 119.207 8.46765 119.064 9.12905C118.317 13.1316 113.941 14.1501 110.476 13.6212C106.611 13.0336 104.292 11.7016 100.459 13.5233C97.9045 14.7378 95.6314 17.676 94.4981 20.2616C94.0652 21.111 93.6781 21.9829 93.3385 22.8734C93.0372 22.5861 93.1747 22.1747 93.2206 21.7503C93.2664 21.3259 93.3254 20.9472 93.404 20.562C94.2753 16.1873 97.0005 11.8518 101.429 10.35C102.907 9.87065 104.476 9.7366 106.015 9.95827C108.989 10.2652 112.566 11.9824 115.455 10.5263C118.075 9.22045 117.682 5.17224 114.688 4.37566C113.201 3.97083 113.037 4.36258 112.395 4.25811V4.2777Z" fill="#F48220"/>
<path id="Vector_20" fill-rule="evenodd" clip-rule="evenodd" d="M107.004 86.3525C105.693 87.5735 104.488 88.1742 103.342 88.1742C102.796 88.1394 102.256 88.0475 101.73 87.9C100.931 87.7041 100.223 86.8879 99.6009 85.471C99.2694 84.7406 99.0975 83.9483 99.0966 83.1466C99.1138 82.3323 99.2597 81.5258 99.5289 80.7568C99.7397 80.2279 100.054 79.746 100.453 79.3392C100.852 78.9323 101.329 78.6085 101.855 78.3866C102.441 78.1401 103.071 78.0114 103.708 78.008C104.207 78.009 104.702 78.0883 105.176 78.243C105.772 78.4528 106.303 78.8125 106.719 79.2872C107.134 79.762 107.42 80.3357 107.547 80.9527C107.575 81.1079 107.591 81.2651 107.593 81.4228C107.593 81.8175 107.507 82.2075 107.339 82.5651C107.172 82.9227 106.927 83.2394 106.624 83.4926C106.585 83.5233 106.553 83.5619 106.53 83.6058C106.508 83.6497 106.495 83.698 106.493 83.7473C106.495 83.824 106.521 83.8981 106.566 83.9599C106.612 84.0217 106.675 84.0682 106.748 84.0933C106.748 84.0933 106.814 84.0933 106.859 84.0933C106.947 84.0792 107.029 84.0407 107.095 83.9823L109.617 81.5142L110.22 80.9592C111.033 80.2673 111.757 79.4778 112.375 78.6087C112.755 78.0744 112.959 77.4354 112.958 76.7804C112.949 76.4026 112.892 76.0275 112.788 75.6639C112.509 74.9568 112.03 74.3457 111.409 73.9052C110.788 73.4647 110.052 73.2136 109.29 73.1827C108.969 73.1827 108.635 73.1436 108.301 73.1436C107.079 73.1445 105.867 73.3657 104.724 73.7965C101.888 75.1277 99.3978 77.0915 97.4457 79.5358C96.0573 81.021 94.9853 82.7713 94.2947 84.681C93.9768 85.556 93.815 86.4797 93.8165 87.4103C93.8272 88.4983 94.0267 89.5763 94.4061 90.5966C95.3101 92.8101 96.4696 93.9527 97.8715 94.018H98.0222C99.3783 94.018 100.846 93.3063 102.418 91.909C103.564 90.8512 104.704 89.7608 105.798 88.5921C106.119 88.2721 106.453 87.9391 106.748 87.6257V87.7563C106.766 88.8297 106.943 89.8945 107.272 90.9165C107.55 91.9639 108.15 92.898 108.989 93.587C109.375 93.8528 109.83 94.0024 110.299 94.018C110.954 94.018 112.107 93.5217 113.227 92.3856C114.537 91.0798 115.847 89.7347 117.158 88.4027C117.872 87.691 118.559 86.9989 119.267 86.3133C119.349 86.2343 119.396 86.1264 119.398 86.013C119.395 85.8997 119.348 85.792 119.267 85.7126C119.191 85.6444 119.094 85.6051 118.992 85.6016C118.882 85.6058 118.777 85.6447 118.69 85.7126L118.107 86.2937C117.616 86.79 117.138 87.2797 116.64 87.7759C116.476 88.014 116.259 88.2112 116.005 88.3521C115.752 88.493 115.47 88.5738 115.18 88.5883C114.891 88.6029 114.602 88.5507 114.336 88.4358C114.07 88.321 113.834 88.1465 113.646 87.9261C112.965 87.1471 112.511 86.196 112.336 85.1772C112.194 84.4524 112.124 83.7153 112.126 82.9768C112.126 82.6764 112.126 82.3761 112.172 82.0758C112.179 82.0042 112.163 81.9324 112.126 81.8704C112.09 81.8084 112.035 81.7592 111.969 81.7297C111.918 81.7055 111.862 81.69 111.805 81.684C111.717 81.6941 111.634 81.7331 111.57 81.795L107.004 86.3525Z" fill="#007A4D"/>
<path id="Vector_21" fill-rule="evenodd" clip-rule="evenodd" d="M73.7966 86.3525C72.4864 87.5735 71.281 88.1742 70.1346 88.1742C69.5892 88.1394 69.0491 88.0475 68.5231 87.9C67.7239 87.7041 67.0163 86.8879 66.394 85.471C66.0624 84.7406 65.8905 83.9483 65.8896 83.1466C65.9068 82.3323 66.0527 81.5258 66.322 80.7568C66.5328 80.2279 66.8469 79.746 67.2461 79.3392C67.6454 78.9323 68.1217 78.6085 68.6475 78.3866C69.2345 78.1401 69.8645 78.0114 70.5015 78.008C71 78.009 71.4952 78.0883 71.9689 78.243C72.5649 78.4528 73.0964 78.8125 73.5119 79.2872C73.9274 79.762 74.2128 80.3357 74.3403 80.9527C74.3683 81.1079 74.3836 81.2651 74.3862 81.4228C74.3864 81.8175 74.2997 82.2075 74.1322 82.5651C73.9647 82.9227 73.7204 83.2394 73.4166 83.4926C73.3778 83.5233 73.3461 83.5619 73.3235 83.6058C73.3009 83.6497 73.288 83.698 73.2856 83.7473C73.288 83.824 73.3137 83.8981 73.3594 83.9599C73.405 84.0217 73.4684 84.0682 73.5411 84.0933C73.5411 84.0933 73.6066 84.0933 73.6525 84.0933C73.74 84.0792 73.8217 84.0407 73.8883 83.9823L76.4105 81.5142L77.0131 80.9592C77.8277 80.269 78.5519 79.4793 79.1684 78.6087C79.5485 78.0744 79.7523 77.4354 79.7515 76.7804C79.742 76.4026 79.6847 76.0275 79.5811 75.6639C79.3022 74.9568 78.823 74.3457 78.2019 73.9052C77.5808 73.4647 76.8446 73.2136 76.0829 73.1827C75.7619 73.1827 75.4278 73.1436 75.0937 73.1436C73.8717 73.1445 72.6599 73.3657 71.5168 73.7965C68.6889 75.1283 66.2056 77.0897 64.2584 79.5293C62.8699 81.0144 61.798 82.7648 61.1073 84.6744C60.7894 85.5494 60.6276 86.4731 60.6291 87.4037C60.6398 88.4918 60.8393 89.5698 61.2187 90.5901C62.1228 92.8035 63.2823 93.9462 64.6842 94.0115H64.8349C66.1909 94.0115 67.6583 93.2998 69.2305 91.9025C70.377 90.8447 71.5169 89.7543 72.6109 88.5856C72.9319 88.2656 73.2659 87.9326 73.5607 87.6192V87.7498C73.5788 88.8231 73.7554 89.888 74.0848 90.91C74.3622 91.9574 74.9626 92.8915 75.8012 93.5805C76.1875 93.8463 76.6423 93.9959 77.1114 94.0115C77.7665 94.0115 78.9194 93.5152 80.0397 92.3791C81.3499 91.0732 82.66 89.7282 83.9702 88.3962C84.6843 87.6845 85.3788 86.9924 86.0797 86.3068C86.1632 86.2284 86.2125 86.1206 86.2173 86.0064C86.2112 85.8926 86.1621 85.7853 86.0797 85.7061C86.004 85.6379 85.9065 85.5986 85.8045 85.5951C85.6948 85.5993 85.5893 85.6382 85.5032 85.7061L84.9202 86.2872C84.4289 86.7834 83.9506 87.2731 83.4528 87.7694C83.2885 88.0075 83.0713 88.2046 82.8181 88.3455C82.565 88.4864 82.2826 88.5673 81.993 88.5818C81.7035 88.5964 81.4145 88.5442 81.1484 88.4293C80.8824 88.3144 80.6464 88.14 80.4589 87.9195C79.7772 87.1406 79.3239 86.1895 79.1487 85.1707C79.0065 84.4459 78.9363 83.7088 78.9391 82.9703C78.9391 82.6699 78.9391 82.3696 78.985 82.0692C78.9913 81.9977 78.9752 81.9259 78.9388 81.8639C78.9024 81.8019 78.8476 81.7527 78.7819 81.7232C78.7303 81.6989 78.6749 81.6835 78.6181 81.6775C78.5294 81.6876 78.4466 81.7266 78.3823 81.7885L73.7966 86.3525Z" fill="#007A4D"/>
<path id="Vector_22" fill-rule="evenodd" clip-rule="evenodd" d="M40.2296 87.1891C39.8561 86.2619 39.5352 85.6416 39.1945 84.8907C39.0897 84.6491 38.9522 84.3684 38.8277 84.0941C38.415 83.167 37.8581 81.946 37.1441 80.405C36.43 78.8641 35.8928 77.5909 35.4867 76.6637C34.1049 73.7819 33.0079 70.7729 32.2112 67.6793C31.9422 66.6106 31.7907 65.5159 31.7592 64.4146C31.7725 63.9595 31.8162 63.5058 31.8902 63.0565C32.1155 61.9644 32.4605 60.9003 32.9187 59.8832C32.943 59.7725 32.9803 59.6651 33.03 59.5632C33.0396 59.518 33.0396 59.4713 33.03 59.4261C33.0297 59.3742 33.0156 59.3233 32.9892 59.2785C32.9627 59.2338 32.9248 59.1969 32.8794 59.1715C32.8326 59.1296 32.772 59.1063 32.709 59.1062C32.6641 59.1072 32.62 59.1176 32.5793 59.1367C32.5387 59.1559 32.5026 59.1833 32.4732 59.2172C32.4102 59.2549 32.3565 59.3062 32.316 59.3674L32.0408 59.6481C31.7133 59.9681 31.3464 60.3011 30.9796 60.6537C29.6833 61.7651 28.5382 63.0404 27.5731 64.4472C26.8279 65.9048 26.4439 67.519 26.4529 69.1549C26.5143 70.433 26.6808 71.704 26.9508 72.955C27.4228 75.0651 28.1327 77.1153 29.0667 79.0665L30.2721 81.8611C30.7438 82.9123 31.3465 84.29 32.1064 85.9811C32.8663 87.6722 33.4821 89.0303 33.98 90.0816C33.9989 90.1661 34.0345 90.246 34.0847 90.3166C34.7968 91.7673 35.4225 93.2586 35.9584 94.7827C35.9779 94.8346 36.0095 94.8811 36.0504 94.9185C36.0914 94.956 36.1407 94.9833 36.1942 94.9982H36.2794C36.3195 95.0016 36.3599 94.9957 36.3974 94.9809C36.4349 94.9662 36.4685 94.9431 36.4955 94.9133C37.1899 94.0318 37.8778 93.1308 38.5853 92.2297C41.2439 88.9683 43.7111 85.5564 45.9748 82.0113C46.4792 83.1082 47.0819 84.4598 47.8156 86.1117C48.5493 87.7636 49.1258 89.076 49.6237 90.0816C49.6453 90.1652 49.6807 90.2446 49.7285 90.3166C50.4406 91.7673 51.0662 93.2586 51.6021 94.7827C51.6217 94.8346 51.6532 94.8811 51.6942 94.9185C51.7351 94.956 51.7844 94.9833 51.8379 94.9982H51.9297C51.9688 95.001 52.0081 94.9949 52.0444 94.9802C52.0808 94.9654 52.1132 94.9425 52.1393 94.9133C52.8337 94.0318 53.5215 93.1308 54.229 92.2297C56.6744 89.2277 58.9638 86.1025 61.0879 82.8666C63.2172 79.6806 64.833 76.182 65.8766 72.4979C66.4038 70.6119 66.677 68.6643 66.6889 66.7064C66.6889 66.6411 66.6889 66.1318 66.6889 65.1393C66.6889 64.1469 66.1714 62.9128 65.1364 61.4502C64.3437 60.4839 63.5183 59.9877 62.6798 59.9877C62.2063 60.0306 61.7464 60.1684 61.3277 60.3928C60.9089 60.6172 60.5399 60.9235 60.2428 61.2935L57.7862 63.742C57.2032 64.3427 56.6005 64.9435 55.9978 65.5507C55.9525 65.5967 55.922 65.6551 55.9099 65.7184C55.8979 65.7817 55.9048 65.8472 55.9301 65.9065C55.9553 65.9659 55.9976 66.0165 56.0516 66.0519C56.1056 66.0874 56.169 66.1061 56.2336 66.1057C56.2771 66.1076 56.3206 66.1004 56.3612 66.0847C56.4018 66.0689 56.4386 66.045 56.4694 66.0143C56.8474 65.5806 57.3818 65.3131 57.9565 65.2699C58.5005 65.2906 59.0141 65.5254 59.3847 65.9229C60.7607 67.4682 61.4919 69.4794 61.4286 71.5447C61.4219 72.2207 61.3628 72.8953 61.2517 73.5622C60.9543 76.0144 60.2919 78.4087 59.2864 80.6662C58.4932 82.4636 57.5851 84.2083 56.5677 85.8897C56.2926 86.3402 56.0502 86.7908 55.8143 87.1956C55.4082 86.2684 55.1593 85.6481 54.7859 84.8972L54.4124 84.1006C53.9801 83.1735 53.4233 81.9525 52.7289 80.4116C52.0345 78.8706 51.4776 77.5974 51.078 76.6702C49.6992 73.7872 48.6023 70.7785 47.8025 67.6858C47.5138 66.6203 47.3532 65.5244 47.3243 64.4211C47.3397 63.955 47.3856 63.4904 47.4619 63.0303C47.7063 61.941 48.0573 60.8781 48.51 59.8571C48.5372 59.7473 48.5746 59.6402 48.6214 59.5371C48.6288 59.5005 48.6288 59.4628 48.6214 59.4261C48.6237 59.3702 48.611 59.3146 48.5845 59.2653C48.558 59.2159 48.5187 59.1745 48.4707 59.1454C48.4233 59.1044 48.3631 59.0814 48.3004 59.0801C48.2556 59.0819 48.2117 59.0926 48.1712 59.1117C48.1307 59.1307 48.0944 59.1577 48.0646 59.1911C48.0016 59.2288 47.9478 59.2801 47.9074 59.3412C47.8135 59.4416 47.7127 59.5354 47.606 59.622C47.285 59.9419 46.9509 60.275 46.5513 60.6275C45.2593 61.7376 44.1206 63.0132 43.1645 64.4211C42.4106 65.8622 42.0194 67.4644 42.0246 69.0896C42.0839 70.2694 42.2284 71.4433 42.4569 72.6024C42.8922 74.6276 43.5513 76.5984 44.4222 78.4789C43.5116 81.0522 42.3279 83.5213 40.8912 85.844C40.7078 86.3272 40.4588 86.7777 40.2296 87.1891Z" fill="#007A4D"/>
<path id="Vector_23" fill-rule="evenodd" clip-rule="evenodd" d="M88.4967 80.0779C88.5436 79.6442 88.5677 79.2083 88.5687 78.772C88.6501 77.6353 88.8701 76.5127 89.2238 75.429C89.6545 74.1407 90.3208 72.943 91.1891 71.8966C91.5992 71.379 92.0698 70.9121 92.5911 70.5058C93.6352 69.7153 94.5236 68.739 95.2114 67.6264C95.3706 67.3019 95.4747 66.9532 95.5193 66.5947C95.5193 66.3793 95.48 65.4129 95.3424 65.4195C95.4067 65.7965 95.3946 66.1825 95.3068 66.5548C95.2191 66.9271 95.0575 67.2781 94.8315 67.5872C94.4369 68.1014 93.9791 68.5642 93.4689 68.9649C92.4037 69.7235 91.428 70.5996 90.5603 71.5767C89.7285 72.6361 89.1121 73.847 88.7456 75.1417C88.4192 76.2895 88.282 77.4825 88.3395 78.6741C88.3592 79.1364 88.4117 79.5968 88.4967 80.0518V80.0779ZM96.3579 65.5631C97.0719 67.8288 94.4974 69.6048 93.0824 70.7474C89.2763 73.8881 88.4967 78.8896 89.7545 83.8062C90.366 86.1047 91.3059 88.3036 92.5452 90.3356C94.1175 92.9473 97.1308 95.9835 97.6353 98.8695C97.7466 99.4571 97.9367 100.358 97.5894 100.874C97.1636 101.527 96.7378 100.645 96.5937 100.254C95.7945 98.1055 93.7636 97.2306 92.0669 96.088C89.7124 94.5726 87.6932 92.5939 86.133 90.2731C84.5728 87.9524 83.5046 85.3385 82.9939 82.5917C82.3772 78.7563 82.6301 74.8318 83.7341 71.1065C84.8281 67.5741 87.4944 62.5726 90.6192 60.8293C91.1204 60.5181 91.6933 60.3405 92.2832 60.3135C92.9383 60.3135 93.1675 60.6856 93.554 61.1688L96.3251 65.5957L96.3579 65.5631Z" fill="#EB2127"/>
<path id="Vector_24" fill-rule="evenodd" clip-rule="evenodd" d="M100.853 61.7304C99.6422 61.7169 98.4518 62.0378 97.4133 62.6576C97.0137 62.8861 96.4045 63.193 96.2079 63.6566C95.959 64.2312 96.3717 64.8123 96.542 65.3542L93.771 60.9273C93.9202 61.1395 94.1155 61.3155 94.3423 61.4421C94.5691 61.5687 94.8217 61.6427 95.0812 61.6586C95.7261 61.6346 96.3611 61.493 96.9548 61.2407C98.0878 60.7819 99.274 60.466 100.486 60.3005C102.071 60.2026 102.3 61.2277 101.796 61.5607C101.503 61.7021 101.177 61.7608 100.853 61.7304Z" fill="#03A550"/>
</g>
</svg>
